<?xml version="1.0" encoding="UTF-8" standalone="no"?>
<!-- Created with Inkscape (http://www.inkscape.org/) -->

<svg
   width="63.999996"
   height="31.999998"
   viewBox="0 0 16.933332 8.466666"
   version="1.1"
   id="svg1"
   xml:space="preserve"
   xmlns="http://www.w3.org/2000/svg"
   xmlns:svg="http://www.w3.org/2000/svg"><defs
     id="defs1" /><g
     id="g8"><rect
       style="fill:#cc0000;fill-opacity:0.996078;stroke:#cc0000;stroke-width:0.505414;stroke-opacity:1"
       id="rect8"
       width="16.427919"
       height="7.9612522"
       x="0.2527068"
       y="0.25270715" /><path
       style="font-size:4.23333px;line-height:10.4098px;font-family:'Hiragino Maru Gothic Pro';-inkscape-font-specification:'Hiragino Maru Gothic Pro';text-align:center;letter-spacing:0.264583px;word-spacing:0px;text-anchor:middle;fill:#ffffff;fill-opacity:0.996078;stroke:#ffffff;stroke-width:0.529167"
       d="M 5.9605341,3.9624002 H 4.1571356 V 2.7305013 c 0,-0.1185333 -0.0889,-0.1735666 -0.2031998,-0.1735666 -0.1185332,0 -0.2031998,0.055033 -0.2031998,0.1735666 v 3.0014308 c 0,0.1142999 0.084667,0.1735665 0.2031998,0.1735665 0.1142999,0 0.2031998,-0.059267 0.2031998,-0.1735665 V 4.3306999 h 1.8033985 v 1.4012322 c 0,0.1142999 0.0889,0.1735665 0.2116665,0.1735665 0.1100666,0 0.1947332,-0.059267 0.1947332,-0.1735665 V 2.7305013 c 0,-0.1185333 -0.084667,-0.1735666 -0.1947332,-0.1735666 -0.1227666,0 -0.2116665,0.055033 -0.2116665,0.1735666 z M 8.7100783,2.5188348 c -0.9101659,0 -1.4816654,0.6730994 -1.4816654,1.7102652 0,1.0498658 0.5757329,1.7187319 1.4816654,1.7187319 0.9059326,0 1.4731987,-0.6730995 1.4731987,-1.7144986 0,-1.0456324 -0.5672661,-1.7144985 -1.4731987,-1.7144985 z m 0,0.3640663 c 0.6434662,0 1.0540991,0.5249329 1.0540991,1.3250322 0,0.8508993 -0.3936996,1.3715989 -1.0540991,1.3715989 -0.6476994,0 -1.0625657,-0.5291662 -1.0625657,-1.3461989 0,-0.8170326 0.4063996,-1.3504322 1.0625657,-1.3504322 z m 2.9442847,0.071967 v 2.7770644 c 0,0.1142999 0.0889,0.1735665 0.2032,0.1735665 0.1143,0 0.2032,-0.059267 0.2032,-0.1735665 V 2.9548677 h 0.960965 c 0.09737,0 0.160867,-0.084667 0.160867,-0.1820331 0,-0.1016 -0.05927,-0.1904999 -0.160867,-0.1904999 h -2.332564 c -0.1016,0 -0.160867,0.0889 -0.160867,0.1904999 0,0.097367 0.05927,0.1820331 0.1651,0.1820331 z"
       id="text8"
       aria-label="HOT" /></g></svg>
