<?xml version='1.0' encoding='utf-8'?>
<svg xmlns="http://www.w3.org/2000/svg" width="3e3" height="1150" version="1.1" viewBox="0 0 793.75 304.27"> <g transform="translate(0 7.2709)"> <path d="m388.97 287.78c-15.888-0.95149-32.825-4.8946-47.305-11.013-4.8167-2.0353-13.247-6.2626-17.514-8.7819-25.823-15.247-46.635-38.709-58.286-65.705-1.7382-4.0277-5.7515-15.89-7.0512-20.842-3.7219-14.18-5.4054-30.199-4.5971-43.745 1.1608-19.457 5.3725-36.533 13.16-53.359 18.142-39.196 53.849-68.358 96.256-78.611 26.923-6.5093 54.925-4.9947 81.041 4.3835 26.921 9.6671 50.228 26.849 66.784 49.233 15.756 21.302 25.259 46.108 27.604 72.056 1.2378 13.7 0.68366 26.277-1.7358 39.397-1.9264 10.446-5.8837 23.546-9.7338 32.22-13.955 31.442-39.156 57.008-70.52 71.541-21.36 9.8972-45.48 14.582-68.102 13.227z" fill="#ffe8b2" stroke-width=".29291"/> <path d="m388.67 287.48c-27.707-1.6593-55.016-11.682-77.182-28.328-7.5876-5.6979-18.269-15.686-23.708-22.169-5.1712-6.1639-10.534-13.815-14.66-20.916-3.6153-6.2221-8.4241-16.456-7.9536-16.926 0.0588-0.0588 0.90282 0.9886 1.8756 2.3275 8.2616 11.371 26.473 21.032 51.768 27.462 15.905 4.0429 29.981 6.242 49.795 7.7788 8.0378 0.62345 30.873 0.88109 39.836 0.44945 33.087-1.5934 62.294-7.1596 85.638-16.321 5.4068-2.1218 15.955-7.4588 19.811-10.024 6.7034-4.4586 11.381-8.7995 14.519-13.473 0.87531-1.3038 1.6811-2.3751 1.7907-2.3805 0.38826-0.0193-0.90065 3.5484-2.9065 8.0452-6.0193 13.494-14.763 26.903-24.162 37.053-16.634 17.963-33.796 29.774-55.466 38.17-18.475 7.1582-39.333 10.429-58.995 9.2517zm-13.181-92.431c-15.153-0.79914-27.44-2.0391-38.957-3.9312-33.531-5.5086-59.088-15.42-72.448-28.096-4.3091-4.0884-6.8796-7.736-8.7041-12.351-0.85268-2.157-1.0153-5.7527-0.5908-13.064 0.57379-9.8821 1.7994-18.455 3.8624-27.016 1.2283-5.0972 6.1198-19.586 8.1049-24.006 7.5642-16.844 17.57-31.184 30.564-43.803 22.233-21.592 49.549-35.122 79.487-39.373 29.033-4.1222 59.323 0.93282 84.505 14.103 14.789 7.7346 26.506 16.378 37.493 27.659 15.537 15.953 25.473 32.274 32.831 53.929 4.4196 13.008 6.4814 23.918 7.3115 38.689 0.30673 5.4577 0.29501 5.7467-0.31454 7.7622-1.3986 4.6243-3.8108 8.4044-8.3173 13.034-6.0508 6.2158-14.836 11.907-26.012 16.852-24.505 10.842-57.191 17.586-94.543 19.508-5.0176 0.25812-29.917 0.33389-34.271 0.10429z" fill="#f7dea2" stroke-width=".29291"/> <path d="m388.38 287.19c-31.027-1.8581-60.235-13.719-84.183-34.186-4.9763-4.2529-13.278-12.486-16.603-16.466-5.2185-6.2461-10.151-13.248-14.025-19.91-3.5194-6.0514-7.88-15.075-7.4787-15.476 0.0803-0.0803 0.18626-0.091 0.23549-0.0239 3.9008 5.318 8.9074 9.6931 15.874 13.872 19.161 11.494 48.86 19.11 85.823 22.007 7.9674 0.62453 32.195 0.88753 41.169 0.44691 32.647-1.603 62.025-7.2451 85.077-16.339 5.3046-2.0927 14.393-6.5793 18.307-9.038 6.5365-4.1055 12.326-9.1611 15.348-13.404 0.78006-1.0948 1.4727-1.9362 1.5392-1.8697 0.59583 0.59583-5.6834 13.88-9.764 20.656-6.9237 11.498-13 19.161-22.683 28.606-12.389 12.085-25.633 21.394-39.748 27.939-21.665 10.046-45.411 14.591-68.888 13.186zm-11.863-144.98c-42.771-1.9282-79.409-11.533-98.326-25.776-3.1087-2.3406-7.6677-6.9084-9.2984-9.3166-2.7848-4.1125-4.1098-8.0918-4.1171-12.365-6e-3 -3.429 0.80466-5.6951 5.1535-14.408 8.0383-16.105 21.452-33.189 34.678-44.169 13.086-10.862 26.204-18.708 40.861-24.439 34.956-13.666 73.76-12.908 107.93 2.1078 12.329 5.4187 24.864 13.248 35.745 22.327 4.3333 3.6154 10.322 9.4301 13.073 12.694 5.5685 6.6058 6.623 7.9086 8.9503 11.057 6.3817 8.6346 12.5 19.102 15.316 26.202 1.4164 3.5717 1.05 8.8141-0.93038 13.312-4.9314 11.199-20.559 21.905-43.437 29.756-28.423 9.7538-68.472 14.691-105.59 13.017z" fill="#ebd192" stroke-width=".29291"/> <path d="m388.67 287.19c-19.289-1.1552-38.363-6.3189-55.8-15.107-4.206-2.1197-7.2803-3.8966-7.083-4.0939 0.051-0.051 1.2042 0.38123 2.5627 0.9605 23.063 9.8346 58.441 13.523 93.566 9.754 17.49-1.8766 34.899-6.2192 46.353-11.563 4.8857-2.2793 2.6844-0.42892-3.5882 3.0161-22.515 12.366-50.232 18.577-76.011 17.033zm-8.7874-20.485c-30.099-1.5202-56.169-7.0961-73.96-15.819-7.3377-3.5975-10.884-6.2175-15.58-11.509-6.6171-7.4569-11.629-14.317-16.192-22.163-2.1099-3.6283-6.7742-12.729-7.1625-13.975-0.11342-0.36394 1.4407 0.98291 3.5489 3.0756 5.2362 5.1977 10.508 8.8057 18.725 12.815 19.922 9.7197 46.478 15.709 81.394 18.357 6.7027 0.50836 37.403 0.50688 44.23-2e-3 38.324-2.8573 68.126-9.7929 90.217-20.996 10.771-5.4623 18.823-11.673 23.368-18.025l0.52072-0.7278-0.18725 0.73228c-0.32932 1.2879-4.5336 10.268-6.6431 14.19-5.7913 10.766-13.62 21.622-20.248 28.077-5.0391 4.908-16.88 10.886-30.203 15.248-16.685 5.463-35.493 8.8179-58.582 10.449-5.9509 0.42046-26.918 0.59275-33.246 0.27319zm-4.1008-163.17c-31.029-1.817-57.675-8.1986-73.992-17.721-4.7879-2.7941-7.5604-4.8738-10.67-8.0041-4.5552-4.5849-6.7759-9.2397-6.7929-14.239-0.0145-4.2627 0.99005-7.0234 3.781-10.391 0.86838-1.0479 2.3321-2.8101 3.2527-3.9159 4.8717-5.8521 16.267-15.836 24.521-21.484 11.228-7.6832 18.746-11.745 29.63-16.009 9.2942-3.6409 16.627-5.7651 25.438-7.3689 17.14-3.1199 32.825-3.196 50.527-0.24523 12.04 2.0069 28.291 7.4597 38.957 13.072 7.1853 3.7803 17.888 10.61 23.726 15.139 8.1209 6.301 17.73 15.677 20.577 20.079 1.8789 2.9043 2.5791 8.4089 1.556 12.231-2.1488 8.0272-10.706 15.965-24.187 22.437-18.772 9.0121-44.897 14.717-75.254 16.433-6.1053 0.34515-25.094 0.3376-31.07-0.0124z" fill="#e1cc8b" stroke-width=".29291"/> <path d="m384.28 266.54c-15.574-0.72551-27.861-2.0113-39.234-4.1059-19.701-3.6284-36.328-9.4836-47.322-16.664-6.5394-4.2714-16.38-16.195-23.57-28.559-2.1099-3.6283-6.7742-12.729-7.1625-13.975-0.11342-0.36394 1.4407 0.98291 3.5489 3.0756 5.2362 5.1977 10.508 8.8057 18.725 12.815 19.922 9.7197 46.478 15.709 81.394 18.357 6.7027 0.50836 37.403 0.50688 44.23-2e-3 38.324-2.8573 68.126-9.7929 90.217-20.996 10.771-5.4623 18.823-11.673 23.368-18.025l0.52072-0.7278-0.18725 0.73228c-0.32932 1.2879-4.5336 10.268-6.6431 14.19-5.6908 10.579-13.93 22.059-19.457 27.11-2.5935 2.3704-9.0194 6.4705-13.932 8.8894-19.036 9.3734-45.504 15.418-76.523 17.475-4.5646 0.3027-24.132 0.59086-27.973 0.41194zm-2.6362-203.13c-23.485-1.2645-44.031-6.5851-55.34-14.331-3.0501-2.0891-6.5505-5.6449-7.7432-7.8659-2.9232-5.4436-1.931-10.7 3.01-15.945 3.2022-3.3992 7.2385-5.9988 14.591-9.3978 15.667-7.2425 27.596-10.76 43.354-12.785 18.008-2.314 38.332-0.79946 55.404 4.1286 6.8592 1.98 18.431 6.507 24.388 9.5412 4.5926 2.339 6.574 3.712 9.1858 6.3653 4.9552 5.0339 6.0435 10.172 3.3244 15.695-1.3165 2.6742-5.1552 6.5691-9.0242 9.1562-16.272 10.881-49.254 17.156-81.149 15.438z" fill="#f4b274" stroke-width=".29291"/> <path d="m381.64 63.411c-23.485-1.2645-44.031-6.5851-55.34-14.331-3.0501-2.0891-6.5505-5.6449-7.7432-7.8659-2.9232-5.4436-1.931-10.7 3.01-15.945 3.2022-3.3992 7.2385-5.9988 14.591-9.3978 15.667-7.2425 27.596-10.76 43.354-12.785 18.008-2.314 38.332-0.79946 55.404 4.1286 6.8592 1.98 18.431 6.507 24.388 9.5412 4.5926 2.339 6.574 3.712 9.1858 6.3653 4.9552 5.0339 6.0435 10.172 3.3244 15.695-1.3165 2.6742-5.1552 6.5691-9.0242 9.1562-16.272 10.881-49.254 17.156-81.149 15.438z" fill="#b5bf8b" stroke-width=".29291"/> <path d="m382.08 47.286c-11.027-0.77872-22.667-3.0747-30.453-6.0068-2.8816-1.0852-7.4753-3.3989-9.6229-4.8468-2.5687-1.7317-5.2461-4.5523-6.237-6.5704-0.73132-1.4894-0.84608-2.0608-0.84608-4.2129 0-2.2866 0.0831-2.643 1.0181-4.3679 1.9067-3.5175 6.1861-7.092 11.615-9.7018 5.1686-2.4846 14.787-5.3131 23.395-6.8801 17.084-3.1097 32.884-3.194 50.381-0.26868 7.9667 1.3319 16.789 3.8211 21.54 6.0775 5.2769 2.5063 9.7037 6.2138 11.299 9.4636 0.71928 1.4649 0.84607 2.0752 0.84607 4.0726 0 2.0556-0.11829 2.5898-0.94585 4.2708-4.167 8.4643-21.09 15.627-43.137 18.257-8.5225 1.0168-20.401 1.3107-28.852 0.71394z" fill="#8a99a4" stroke-width=".29291"/> <path d="m382.08 47.286c-11.027-0.77872-22.667-3.0747-30.453-6.0068-2.8816-1.0852-7.4753-3.3989-9.6229-4.8468-2.5687-1.7317-5.2461-4.5523-6.237-6.5704-0.73273-1.4923-0.8456-2.0567-0.84256-4.2129 4e-3 -2.7901 0.41442-3.8593 2.5615-6.6718 2.1057-2.7584 6.8472-6.0656 11.654-8.1286 5.788-2.4842 17.779-5.4847 27.375-6.85 18.203-2.5899 37.853-1.6009 55.069 2.7717 2.7397 0.69582 5.9691 1.6194 7.1764 2.0525 7.3618 2.6406 13.363 6.983 15.409 11.149 0.71928 1.4649 0.84607 2.0752 0.84607 4.0726 0 2.0556-0.11829 2.5898-0.94585 4.2708-4.167 8.4643-21.09 15.627-43.137 18.257-8.5225 1.0168-20.401 1.3107-28.852 0.71394zm20.945-19.43c10.137-1.1897 17.906-3.851 21.775-7.4594 6.072-5.6631 1.1552-11.617-12.241-14.823-5.0618-1.2115-9.7159-1.6924-16.419-1.6966-11.473-7e-3 -20.568 1.7458-27.484 5.2967-6.6387 3.4086-8.2093 7.9371-4.1024 11.829 3.6249 3.4347 11.631 6.0752 21.481 7.0849 2.9612 0.30352 13.679 0.15803 16.991-0.23065z" fill="#859e8f" stroke-width=".29291"/> <path d="m396.39 1.7503c-10.966 0.036833-21.949 1.3541-32.759 3.9677-42.407 10.253-78.114 39.415-96.256 78.611-7.7879 16.826-12 33.902-13.16 53.359-0.80821 13.546 0.87524 29.565 4.5971 43.745 1.2997 4.9517 5.3131 16.814 7.0512 20.842 11.65 26.996 32.463 50.458 58.286 65.705 4.2666 2.5193 12.697 6.7466 17.514 8.7819 14.481 6.1189 31.418 10.062 47.306 11.014 2.6899 0.16108 5.4015 0.2336 8.1266 0.22529-28.787-5.4667-55.001-22.795-73.97-48.912-19.068-26.254-29.564-59.665-29.6-94.225 0.0136-34.469 10.433-67.808 29.393-94.051 18.824-26.056 44.849-43.427 73.473-49.063z" fill-opacity=".31373" stroke-width=".29291"/> <g transform="translate(9e-7 244.74)"> <path d="m396.88-248.32c-218.35 0-395.36 66.46-395.36 148.44 1.6e-5 81.983 177.01 148.44 395.36 148.44 218.35-7e-6 395.36-66.46 395.36-148.44-1e-5 -81.983-177.01-148.44-395.36-148.44zm0 3.5607c213.11-1e-5 385.88 64.866 385.88 144.88 2e-5 80.016-172.76 144.88-385.88 144.88-213.11 1.1e-5 -385.88-64.866-385.88-144.88-4e-5 -80.016 172.76-144.88 385.88-144.88z" fill="#6e6252" fill-opacity=".70196" style="paint-order:normal"/> <path transform="matrix(.26458 0 0 .26458 0 -496.75)" d="m1773.2 1033.9c56.511 33.049 106.42 75.79 146.98 126.2 341.16 59.549 577.7 189.37 577.7 339.93 0 206.92-446.77 374.66-997.88 374.66s-997.88-167.74-997.88-374.66c-8e-5 -150.57 236.58-280.4 577.78-339.94 40.846-50.402 90.646-93.19 146.73-126.17-570.52 46.955-997.55 237.81-997.55 466.11 5e-5 263.54 569.01 477.18 1270.9 477.18 701.91 0 1270.9-213.64 1270.9-477.18 0-228.33-427.11-419.19-997.71-466.12z" fill="#c6a887" style="paint-order:normal"/> <path transform="matrix(.26458 0 0 .26458 0 -496.75)" d="m1110.5 1125.5c-136.57 20.022-262.07 50.545-367.74 90.223-200.84 75.406-313.67 177.68-313.67 284.32 4e-5 106.64 112.83 208.91 313.67 284.32 200.84 75.406 473.23 117.77 757.25 117.77s556.42-42.364 757.25-117.77c200.84-75.406 313.67-177.68 313.67-284.32s-112.83-208.91-313.67-284.32c-105.62-39.654-231.03-70.166-367.51-90.189 15.512 16.138 29.993 33.24 43.309 51.242 19.362 26.176 36.206 53.761 50.453 82.43 29.667 8.3963 57.917 17.597 84.49 27.574 150.64 56.56 235.27 133.27 235.27 213.26 0 79.989-84.63 156.7-235.27 213.26s-354.96 88.336-568 88.336-417.36-31.776-568-88.336-235.27-133.27-235.27-213.26c-7e-5 -79.989 84.63-156.7 235.27-213.26 26.513-9.9548 54.695-19.138 84.289-27.52 24.441-49.48 56.375-94.498 94.201-133.76z" fill="#312d24" fill-opacity=".30196" style="paint-order:normal"/> <path transform="matrix(.26458 0 0 .26458 0 -496.75)" d="m1500 956.98c-798.76 0-1446.3 243.12-1446.3 543.02 6e-5 299.9 647.52 543.02 1446.3 543.02 798.76 0 1446.3-243.12 1446.3-543.02s-647.52-543.02-1446.3-543.02zm-0.3711 2.1035c61.287-0.0367 122.41 10.533 181.02 31.578 20.428 7.3354 40.293 15.835 59.524 25.389 609.3 42.358 1070.8 242.92 1070.8 483.95 1e-4 271.84-586.92 492.2-1310.9 492.2-724.01 1e-4 -1310.9-220.37-1310.9-492.2-1.3e-4 -240.98 461.26-441.51 1070.4-483.92 36.288-18.118 74.804-32.289 114.91-41.984 41.338-9.9946 83.348-14.985 125.28-15.01z" fill="#6e6252" fill-opacity=".6" style="paint-order:normal"/> </g> </g> </svg>