<?xml version="1.0" encoding="UTF-8" standalone="no"?>
<!-- Created with Inkscape (http://www.inkscape.org/) -->

<svg
   width="24"
   height="24"
   viewBox="0 0 6.3499999 6.3499999"
   version="1.1"
   id="svg1"
   xml:space="preserve"
   xmlns="http://www.w3.org/2000/svg"
   xmlns:svg="http://www.w3.org/2000/svg"><defs
     id="defs1" /><g
     id="layer1"><g
       style="fill:#ffff00"
       id="g1"
       transform="matrix(0.00792759,0,0,0.00835526,-0.63420704,7.3526299)"><path
         d="m 305,-704 112,-145 q 12,-16 28.5,-23.5 16.5,-7.5 34.5,-7.5 18,0 34.5,7.5 16.5,7.5 28.5,23.5 l 112,145 170,57 q 26,8 41,29.5 15,21.5 15,47.5 0,12 -3.5,24 -3.5,12 -11.5,23 l -110,156 4,164 q 1,35 -23,59 -24,24 -56,24 -2,0 -22,-3 l -179,-50 -179,50 q -5,2 -11,2.5 -6,0.5 -11,0.5 -32,0 -56,-24 -24,-24 -23,-59 L 204,-368 95,-523 Q 87,-534 83.5,-546 80,-558 80,-570 80,-595 94.5,-616.5 109,-638 135,-647 Z m 49,69 -194,64 124,179 -4,191 200,-55 200,56 -4,-192 124,-177 -194,-66 -126,-165 z m 126,135 z"
         id="path1"
         style="opacity:0.5;fill:#ffff00;fill-opacity:0.996078" /></g><path
       style="opacity:0.5;fill:#ffff00;fill-opacity:0.996078;stroke:#ffff00;stroke-width:0.221;stroke-dasharray:none"
       d="M 6.1079476,18.386598 6.1740583,15.387821 4.3517939,12.621855 C 3.3495485,11.100573 2.5694364,9.8210474 2.6182114,9.7784649 2.6669864,9.7358824 3.800699,9.3222911 5.1375727,8.8593733 6.4744465,8.3964554 7.7238695,7.9635128 7.9140683,7.8972786 8.1876117,7.8020207 8.6489291,7.2391163 10.121419,5.203847 c 1.800934,-2.4892456 1.867236,-2.5654738 2.036695,-2.3416304 0.09634,0.1272566 0.934088,1.2840715 1.861666,2.5706998 0.927578,1.2866283 1.744748,2.3613488 1.815935,2.3882676 0.07119,0.026919 1.347532,0.4854692 2.836324,1.0190008 1.488791,0.5335317 2.727436,0.9874813 2.752545,1.008777 0.02511,0.021296 -0.782629,1.2814112 -1.794975,2.8002572 l -1.840629,2.761538 0.0729,2.997269 c 0.07099,2.918571 0.06735,2.995551 -0.13852,2.931827 -2.017233,-0.624396 -5.56792,-1.639279 -5.735693,-1.639416 -0.171589,-1.4e-4 -5.0602856,1.376734 -5.7902952,1.630805 -0.1322835,0.04604 -0.1456536,-0.39421 -0.089427,-2.944644 z"
       id="path4"
       transform="scale(0.26458333)" /></g></svg>
