<?xml version="1.0" encoding="UTF-8" standalone="no"?>
<!-- Created with Inkscape (http://www.inkscape.org/) -->

<svg
   width="63.999996"
   height="63.999996"
   viewBox="0 0 16.933332 16.933332"
   version="1.1"
   id="svg1"
   inkscape:version="1.4.2 (ebf0e940, 2025-05-08)"
   xml:space="preserve"
   xmlns:inkscape="http://www.inkscape.org/namespaces/inkscape"
   xmlns:sodipodi="http://sodipodi.sourceforge.net/DTD/sodipodi-0.dtd"
   xmlns="http://www.w3.org/2000/svg"
   xmlns:svg="http://www.w3.org/2000/svg"><sodipodi:namedview
     id="namedview1"
     pagecolor="#ffffff"
     bordercolor="#000000"
     borderopacity="0.25"
     inkscape:showpageshadow="2"
     inkscape:pageopacity="0.0"
     inkscape:pagecheckerboard="0"
     inkscape:deskcolor="#ffffff"
     inkscape:document-units="px"><inkscape:page
       x="0"
       y="0"
       width="16.933332"
       height="16.933332"
       id="page2"
       margin="0"
       bleed="0" /></sodipodi:namedview><defs
     id="defs1" /><g
     inkscape:label="Layer 1"
     inkscape:groupmode="layer"
     id="layer1"><g
       id="g1"
       transform="matrix(0.02428975,0,0,0.02428975,-7.8202609,-0.39073712)"><path
         d="m 702.65,534.74 c -19.292,0.162 -45.015,0.379 -64.307,0.542 -10e-4,-0.002 -4.765,-13.551 -6.807,-19.358 0.007,-0.009 54.388,-61.425 68.283,-93.172 10.182,-23.261 14.421,-57.622 17.318,-82.848 5.081,-44.253 2.41,-103.93 1.767,-148.47 -0.05,-3.415 -0.264,-7.965 -0.377,-11.379 10e-4,0 8.146,0.675 11.638,0.964 2.038,13.772 5.3,32.064 6.793,45.906 1.898,17.605 3.731,41.19 3.892,58.896 0.224,24.606 -1.754,57.433 -4.232,81.915 -3.376,33.34 -9.55,77.734 -17.059,110.39 -3.972,17.273 -11.836,39.626 -16.909,56.608"
         fill="#dfe4ea"
         fill-rule="evenodd"
         id="path2" /><path
         d="m 638.34,535.28 v 0 c 19.292,-0.163 45.015,-0.38 64.307,-0.542 v 0 c 5.073,-16.982 12.937,-39.335 16.909,-56.608 7.509,-32.658 13.683,-77.052 17.059,-110.39 2.478,-24.482 4.456,-57.309 4.232,-81.915 -0.161,-17.706 -1.994,-41.291 -3.892,-58.896 -1.493,-13.842 -4.755,-32.134 -6.793,-45.906 v 0 c -3.492,-0.289 -11.637,-0.964 -11.638,-0.964 v 0 c 0.113,3.414 0.327,7.964 0.377,11.379 0.643,44.538 3.314,104.21 -1.767,148.47 -2.897,25.226 -7.136,59.587 -17.318,82.848 -13.895,31.747 -68.276,93.163 -68.283,93.172 v 0 c 2.042,5.807 6.806,19.356 6.807,19.358"
         fill="none"
         stroke="#dfe4ea"
         stroke-linecap="round"
         stroke-linejoin="round"
         id="path3" /><path
         d="m 707.3,452.27 c -4.341,19.697 -11.293,45.688 -16.134,65.268 -0.005,10e-4 -41.067,0.514 -58.668,0.734 -0.001,-0.004 -7.936,-28.63 -10.633,-41.068 -6.171,-28.454 -12.745,-66.784 -16.134,-95.702 -2.281,-19.464 -3.884,-45.579 -4.575,-65.164 -0.741,-20.986 -1.547,-49.054 0,-69.996 1.286,-17.417 3.684,-40.79 8.398,-57.606 0.596,-2.128 1.851,-4.812 2.644,-6.874 0.005,0 33.496,-4.47 47.949,-4.816 14.802,-0.355 34.784,-0.398 49.284,2.593 3.616,0.746 8.171,2.724 11.673,3.891 1.661,11.623 4.629,27.037 5.536,38.743 1.534,19.783 0.996,46.307 0.384,66.139 -0.907,29.374 -2.996,68.588 -6.9,97.716 -2.685,20.033 -8.474,46.404 -12.824,66.142"
         fill="#ffffff"
         fill-rule="evenodd"
         id="path4" /><path
         d="m 691.16,517.53 v 0 c 4.841,-19.58 11.793,-45.571 16.134,-65.268 4.35,-19.738 10.139,-46.109 12.824,-66.142 3.904,-29.128 5.993,-68.342 6.9,-97.716 0.612,-19.832 1.15,-46.356 -0.384,-66.139 -0.907,-11.706 -3.875,-27.12 -5.536,-38.743 v 0 c -3.502,-1.167 -8.057,-3.145 -11.673,-3.891 -14.5,-2.991 -34.482,-2.948 -49.284,-2.593 -14.453,0.346 -47.944,4.816 -47.949,4.816 v 0 c -0.793,2.062 -2.048,4.746 -2.644,6.874 -4.714,16.816 -7.112,40.189 -8.398,57.606 -1.547,20.942 -0.741,49.01 0,69.996 0.691,19.585 2.294,45.7 4.575,65.164 3.389,28.918 9.963,67.248 16.134,95.702 2.697,12.438 10.632,41.064 10.633,41.068 v 0 c 17.601,-0.22 58.663,-0.733 58.668,-0.734"
         fill="none"
         stroke="#ffffff"
         stroke-linecap="round"
         stroke-linejoin="round"
         id="path5" /><path
         d="m 727.89,172.19 c 1.294,4.749 2.67,11.17 3.815,15.958 -0.002,-0.001 -11.989,-2.04 -17.127,-2.914 0,-0.003 -5.456,-19.399 -7.628,-27.757 -2.326,-8.952 -4.625,-21.103 -7.331,-29.949 -2.947,-9.635 -8.182,-22.04 -11.661,-31.496 -3.397,-9.231 -8.067,-21.49 -11.263,-30.792 -1.794,-5.226 -4.149,-12.211 -5.675,-17.521 -0.534,-1.858 -1.126,-4.368 -1.609,-6.241 l 0.71,-2.995 c 3.185,4.939 7.656,11.388 10.617,16.465 5.234,8.978 11.565,21.328 15.924,30.761 6.11,13.221 13.32,31.283 18.229,44.994 4.397,12.28 9.57,28.903 12.999,41.487 z"
         fill="#d54723"
         fill-rule="evenodd"
         id="path6" /><path
         d="m 731.71,188.15 v 0 c -1.145,-4.788 -2.521,-11.209 -3.815,-15.958 -3.429,-12.584 -8.602,-29.207 -12.999,-41.487 -4.909,-13.711 -12.119,-31.773 -18.229,-44.994 -4.359,-9.433 -10.69,-21.783 -15.924,-30.761 -2.961,-5.077 -7.432,-11.526 -10.617,-16.465 l -0.71,2.995 v 0 c 0.483,1.873 1.075,4.383 1.609,6.241 1.526,5.31 3.881,12.295 5.675,17.521 3.196,9.302 7.866,21.561 11.263,30.792 3.479,9.456 8.714,21.861 11.661,31.496 2.706,8.846 5.005,20.997 7.331,29.949 2.172,8.358 7.628,27.754 7.628,27.757 v 0 c 5.138,0.874 17.125,2.913 17.127,2.914"
         fill="none"
         stroke="#d54723"
         stroke-linecap="round"
         stroke-linejoin="round"
         id="path7" /><path
         d="m 718.07,170.03 c 1.092,4.875 1.974,11.489 2.821,16.413 -0.003,-0.001 -20.988,-2.925 -30.045,-3.466 -13.576,-0.812 -31.745,-0.532 -45.335,0 -6.547,0.255 -15.306,0.594 -21.782,1.593 -4.203,0.649 -9.669,2.232 -13.813,3.188 10e-4,-0.001 1.159,-10.842 2.126,-15.407 2.83,-13.366 8.535,-30.751 13.281,-43.563 5.745,-15.507 15.116,-35.515 22.271,-50.424 4.019,-8.373 9.532,-19.48 14.178,-27.522 2.216,-3.836 7.915,-12.467 7.915,-12.467 3.521,5.997 7.725,14.284 10.589,20.621 3.758,8.315 7.874,19.785 11.049,28.34 5.278,14.224 12.144,33.263 16.73,47.724 3.299,10.403 7.628,24.322 10.015,34.97 z"
         fill="#fb6020"
         fill-rule="evenodd"
         id="path8" /><path
         d="m 720.89,186.44 v 0 c -0.847,-4.924 -1.729,-11.538 -2.821,-16.413 -2.387,-10.648 -6.716,-24.567 -10.015,-34.97 -4.586,-14.461 -11.452,-33.5 -16.73,-47.724 -3.175,-8.555 -7.291,-20.025 -11.049,-28.34 -2.864,-6.337 -7.068,-14.624 -10.589,-20.621 0,0 -5.699,8.631 -7.915,12.467 -4.646,8.042 -10.159,19.149 -14.178,27.522 -7.155,14.909 -16.526,34.917 -22.271,50.424 -4.746,12.812 -10.451,30.197 -13.281,43.563 -0.967,4.565 -2.125,15.406 -2.126,15.407 v 0 c 4.144,-0.956 9.61,-2.539 13.813,-3.188 6.476,-0.999 15.235,-1.338 21.782,-1.593 13.59,-0.532 31.759,-0.812 45.335,0 9.057,0.541 30.042,3.465 30.045,3.466"
         fill="none"
         stroke="#fb6020"
         stroke-linecap="round"
         stroke-linejoin="round"
         id="path9" /><path
         d="m 764.94,532.63 c -2.059,11.408 -6.982,26.133 -9.975,37.333 0,-10e-4 -1.414,-11.05 -2.565,-15.674 -2.188,-8.79 -5.546,-20.597 -9.974,-28.499 -2.827,-5.044 -7.727,-11.177 -11.97,-15.105 -4.385,-4.059 -11.073,-8.678 -16.53,-11.114 -4.677,-2.088 -11.57,-2.993 -16.529,-4.275 10e-4,-0.01 3.918,-65.817 5.596,-94.024 7.646,1.263 18.198,1.575 25.485,4.212 5.751,2.081 13.2,5.992 17.67,10.166 5.83,5.444 11.266,14.989 14.523,22.27 3.439,7.685 6.058,18.777 7.262,27.11 1.25,8.65 1.01,20.391 0.712,29.126 -0.396,11.589 -1.646,27.062 -3.705,38.474"
         fill="#de3f18"
         fill-rule="evenodd"
         id="path10" /><path
         d="m 754.97,569.96 v 0 c 2.993,-11.2 7.916,-25.925 9.975,-37.333 2.059,-11.412 3.309,-26.885 3.705,-38.474 0.298,-8.735 0.538,-20.476 -0.712,-29.126 -1.204,-8.333 -3.823,-19.425 -7.262,-27.11 -3.257,-7.281 -8.693,-16.826 -14.523,-22.27 -4.47,-4.174 -11.919,-8.085 -17.67,-10.166 -7.287,-2.637 -17.839,-2.949 -25.485,-4.212 v 0 c -1.678,28.207 -5.595,94.014 -5.596,94.024 v 0 c 4.959,1.282 11.852,2.187 16.529,4.275 5.457,2.436 12.145,7.055 16.53,11.114 4.243,3.928 9.143,10.061 11.97,15.105 4.428,7.902 7.786,19.709 9.974,28.499 1.151,4.624 2.565,15.673 2.565,15.674"
         fill="none"
         stroke="#de3f18"
         stroke-linecap="round"
         stroke-linejoin="round"
         id="path11" /><path
         d="m 576.06,531.97 c 2.032,11.404 6.895,26.134 9.85,37.334 0,-0.002 1.395,-11.049 2.533,-15.675 2.16,-8.784 5.467,-20.586 9.85,-28.499 2.788,-5.033 7.621,-11.171 11.82,-15.104 4.324,-4.05 10.925,-8.676 16.324,-11.114 4.613,-2.084 11.426,-2.993 16.323,-4.276 0,-0.009 -3.868,-65.817 -5.526,-94.024 -7.551,1.264 -17.979,1.581 -25.168,4.213 -5.689,2.083 -13.044,6.007 -17.449,10.166 -5.779,5.455 -11.129,15.002 -14.342,22.269 -3.402,7.695 -5.983,18.782 -7.172,27.111 -1.235,8.652 -0.996,20.39 -0.702,29.125 0.39,11.588 1.624,27.06 3.659,38.474"
         fill="#fb6020"
         fill-rule="evenodd"
         id="path12" /><path
         d="m 585.91,569.3 v 0 c -2.955,-11.2 -7.818,-25.93 -9.85,-37.334 -2.035,-11.414 -3.269,-26.886 -3.659,-38.474 -0.294,-8.735 -0.533,-20.473 0.702,-29.125 1.189,-8.329 3.77,-19.416 7.172,-27.111 3.213,-7.267 8.563,-16.814 14.342,-22.269 4.405,-4.159 11.76,-8.083 17.449,-10.166 7.189,-2.632 17.617,-2.949 25.168,-4.213 v 0 c 1.658,28.207 5.526,94.015 5.526,94.024 v 0 c -4.897,1.283 -11.71,2.192 -16.323,4.276 -5.399,2.438 -12,7.064 -16.324,11.114 -4.199,3.933 -9.032,10.071 -11.82,15.104 -4.383,7.913 -7.69,19.715 -9.85,28.499 -1.138,4.626 -2.533,15.673 -2.533,15.675"
         fill="none"
         stroke="#fb6020"
         stroke-linecap="round"
         stroke-linejoin="round"
         id="path13" /><path
         d="m 671.02,217.28 c -15.064,0 -30.831,11.4 -30.831,30.568 0,19.168 15.767,30.568 30.831,30.568 15.064,10e-4 30.831,-11.4 30.831,-30.568 0,-19.168 -15.767,-30.568 -30.831,-30.568 z"
         fill="#dd4520"
         fill-rule="evenodd"
         stroke="#dd4520"
         stroke-linecap="round"
         stroke-linejoin="round"
         id="path14" /><path
         d="m 670.33,224.14 c -10.057,0 -22.917,6.983 -22.917,23.137 0,16.153 12.86,23.137 22.917,23.137 10.056,0 22.917,-6.984 22.917,-23.137 0,-16.154 -12.861,-23.137 -22.917,-23.137 z"
         fill="#d2f0fb"
         fill-rule="evenodd"
         stroke="#d2f0fb"
         stroke-linecap="round"
         stroke-linejoin="round"
         id="path15" /><path
         d="m 678.4,679.04 c -2.024,3.717 -5.308,8.328 -7.583,11.897 -10e-4,-0.002 -8.182,-11.89 -10.981,-17.387 -3.709,-7.282 -7.481,-17.568 -9.936,-25.362 -2.433,-7.722 -5.269,-18.207 -6.339,-26.232 -0.614,-4.605 -0.547,-10.83 -0.6,-15.475 -0.095,-8.383 -0.29,-19.597 0.54,-27.939 0.598,-6.013 1.898,-14.008 3.487,-19.838 1.327,-4.867 4.09,-11.036 5.843,-15.765 0.004,0 22.149,-0.077 31.641,-0.11 2.064,4.189 5.256,9.585 6.878,13.964 2.396,6.466 4.573,15.48 5.547,22.307 1.113,7.812 0.973,18.394 0.964,26.285 -0.006,4.767 -0.04,11.143 -0.564,15.881 -0.913,8.253 -2.839,19.237 -5.319,27.161 -3,9.588 -8.774,21.789 -13.578,30.613"
         fill="#fcbf0f"
         fill-rule="evenodd"
         id="path16" /><path
         d="m 670.82,690.94 v 0 c 2.275,-3.569 5.559,-8.18 7.583,-11.897 4.804,-8.824 10.578,-21.025 13.578,-30.613 2.48,-7.924 4.406,-18.908 5.319,-27.161 0.524,-4.738 0.558,-11.114 0.564,-15.881 0.009,-7.891 0.149,-18.473 -0.964,-26.285 -0.974,-6.827 -3.151,-15.841 -5.547,-22.307 -1.622,-4.379 -4.814,-9.775 -6.878,-13.964 v 0 c -9.492,0.033 -31.637,0.11 -31.641,0.11 v 0 c -1.753,4.729 -4.516,10.898 -5.843,15.765 -1.589,5.83 -2.889,13.825 -3.487,19.838 -0.83,8.342 -0.635,19.556 -0.54,27.939 0.053,4.645 -0.014,10.87 0.6,15.475 1.07,8.025 3.906,18.51 6.339,26.232 2.455,7.794 6.227,18.08 9.936,25.362 2.799,5.497 10.98,17.385 10.981,17.387"
         fill="none"
         stroke="#fcbf0f"
         stroke-linecap="round"
         stroke-linejoin="round"
         id="path17" /><path
         d="m 683.04,585.39 c -1.797,8.976 -8.177,19.731 -11.682,28.187 -0.002,-0.003 -11.728,-18.03 -14.067,-26.805 -2.586,-9.702 -4.066,-23.856 -1.108,-33.451 0.858,-2.783 3.63,-5.744 5.186,-8.206 0.002,0 11.946,-0.226 17.066,-0.322 1.382,2.488 3.814,5.56 4.605,8.294 2.694,9.309 1.903,22.801 0,32.303"
         fill="#fee564"
         fill-rule="evenodd"
         id="path18" /><path
         d="m 671.36,613.58 v 0 c 3.505,-8.456 9.885,-19.211 11.682,-28.187 1.903,-9.502 2.694,-22.994 0,-32.303 -0.791,-2.734 -3.223,-5.806 -4.605,-8.294 v 0 c -5.12,0.096 -17.064,0.322 -17.066,0.322 v 0 c -1.556,2.462 -4.328,5.423 -5.186,8.206 -2.958,9.595 -1.478,23.749 1.108,33.451 2.339,8.775 14.065,26.802 14.067,26.805"
         fill="none"
         stroke="#fee564"
         stroke-linecap="round"
         stroke-linejoin="round"
         id="path19" /><path
         d="m 694.49,540.6 h -49.635 v 7.968 h 49.635 z"
         fill="#0e3753"
         fill-rule="evenodd"
         stroke="#0e3753"
         stroke-linecap="round"
         stroke-linejoin="round"
         id="path20" /><path
         d="m 698.32,531.54 h -57.191 v 9.765 h 57.191 z"
         fill="#196193"
         fill-rule="evenodd"
         stroke="#196193"
         stroke-linecap="round"
         stroke-linejoin="round"
         id="path21" /></g></g></svg>
