<?xml version="1.0" encoding="UTF-8" standalone="no"?>
<!-- Created with Inkscape (http://www.inkscape.org/) -->

<svg
   width="31.999998"
   height="31.999998"
   viewBox="0 0 8.466666 8.466666"
   version="1.1"
   id="svg1"
   xmlns="http://www.w3.org/2000/svg"
   xmlns:svg="http://www.w3.org/2000/svg">
  <defs
     id="defs1" />
  <g
     id="layer1">
    <circle
       style="fill:#000000;stroke:#000000;stroke-width:0.256565"
       id="path1"
       cx="4.2333331"
       cy="4.2333331"
       r="4.1050506" />
    <rect
       style="fill:#fff6d5;stroke:#ffffff;stroke-width:0.264583;stroke-opacity:1"
       id="rect9"
       width="5.2916665"
       height="5.2916665"
       x="1.5875"
       y="1.5875"
       ry="0.74908549" />
    <rect
       style="fill:#000000;stroke:#000000;stroke-width:0.264583;stroke-opacity:1"
       id="rect9-9"
       width="4.7624998"
       height="4.7624998"
       x="1.8520833"
       y="1.8520833"
       ry="0.38367793"
       rx="0" />
    <path
       id="path9"
       style="fill:#fff6d5;stroke:#000000;stroke-width:0.264583;stroke-opacity:1"
       d="M 3.9746094,2.3984375 A 1.8520833,1.8520833 0 0 0 2.3984375,4.4882812 1.8520833,1.8520833 0 0 0 4.4863281,6.0683594 l 0.011719,-0.00195 A 1.8520833,1.8520833 0 0 0 6.0664062,3.9726562 1.8520833,1.8520833 0 0 0 3.9746094,2.3984375 Z" />
    <path
       style="fill:#000000;fill-opacity:1;stroke:#000000;stroke-width:0.264583;stroke-opacity:1"
       id="path10"
       d="M 4.3957311,5.4128329 A 1.190625,1.190625 0 0 1 3.054005,4.3969738 1.190625,1.190625 0 0 1 4.0684547,3.0541818 1.190625,1.190625 0 0 1 5.4123112,4.067221 1.190625,1.190625 0 0 1 4.4006836,5.4121404 L 4.2333312,4.2333355 Z" />
    <path
       style="fill:#ffffff;fill-opacity:1;stroke:#ffffff;stroke-width:0.264583;stroke-opacity:1"
       id="path11"
       d="M 6.0943923,2.6126423 A 0.21166666,0.21166666 0 0 1 5.8558805,2.4321689 0.21166666,0.21166666 0 0 1 6.0359624,2.1933613 0.21166666,0.21166666 0 0 1 6.275065,2.3730512 0.21166666,0.21166666 0 0 1 6.0957676,2.6124483" />
  </g>
</svg>
