<?xml version="1.0" encoding="UTF-8" standalone="no"?>
<!-- Created with Inkscape (http://www.inkscape.org/) -->

<svg
   width="127.99999"
   height="48"
   viewBox="0 0 33.866664 12.7"
   version="1.1"
   id="svg1"
   xml:space="preserve"
   xmlns="http://www.w3.org/2000/svg"
   xmlns:svg="http://www.w3.org/2000/svg"><defs
     id="defs1" /><g
     id="layer1"
     transform="translate(1.0583342,1.0583334)"><path
       id="rect1"
       style="fill:#333333;stroke:#333333;stroke-width:0.264583"
       d="M 0,0 H 31.749998 V 10.583333 H 0 Z" /><path
       style="font-weight:300;font-size:6.61458px;line-height:8.2683px;font-family:'Hiragino Kaku Gothic ProN';-inkscape-font-specification:'Hiragino Kaku Gothic ProN Light';text-align:center;letter-spacing:0px;text-anchor:middle;fill:#333333;stroke:#ffffff;stroke-width:0.611009"
       d="m 7.3700447,2.6369665 c 0.039687,0.2248957 0.052917,0.4299477 0.052917,0.740833 V 4.7800904 H 4.4331711 V 3.3645703 c 0,-0.3108853 0.013229,-0.4828644 0.052917,-0.7276038 H 3.8643172 c 0.039688,0.2315103 0.052917,0.4233331 0.052917,0.740833 v 3.5454149 c 0,0.3241144 -0.013229,0.5159373 -0.052917,0.740833 H 4.4860878 C 4.4464003,7.4259225 4.4331711,7.2539434 4.4331711,6.9232144 V 5.2497256 h 2.9897903 v 1.6734888 c 0,0.3174999 -0.013229,0.4960935 -0.052917,0.740833 H 7.9918153 C 7.9521278,7.4060788 7.9388986,7.2473288 7.9388986,6.9232144 V 3.3645703 c 0,-0.3108853 0.013229,-0.4762498 0.052917,-0.7276038 z m 3.2080703,5.1130704 c 1.064948,0 1.752864,-0.7408329 1.752864,-1.8719261 0,-1.1377078 -0.681302,-1.8653117 -1.759478,-1.8653117 -1.0781769,0 -1.7660933,0.7276039 -1.7660933,1.8719262 0,1.1443224 0.6879164,1.8653116 1.7727073,1.8653116 z m 0.0066,-3.3205192 c 0.760677,0 1.236926,0.5556247 1.236926,1.4485931 0,0.8929683 -0.476249,1.4419784 -1.250155,1.4419784 -0.7739062,0 -1.2567706,-0.5490101 -1.2567706,-1.448593 0,-0.8929683 0.4828644,-1.4419785 1.2699996,-1.4419785 z m 3.049321,3.2345297 V 7.2936309 c 0,-0.08599 -0.0066,-0.1389062 -0.01984,-0.2645832 0.105833,0.1587499 0.165364,0.2315103 0.310885,0.3439582 0.304271,0.251354 0.608541,0.3571873 1.02526,0.3571873 1.031874,0 1.653645,-0.7011455 1.653645,-1.8653116 0,-1.150937 -0.608541,-1.8388533 -1.627187,-1.8388533 -0.601926,0 -1.051718,0.2381249 -1.362603,0.7276038 0.01984,-0.1719791 0.02646,-0.2910415 0.02646,-0.4696352 V 3.3910286 c 0,-0.3174998 0.01323,-0.5093227 0.0463,-0.7540621 h -0.582083 c 0.03307,0.2579686 0.0463,0.4696352 0.0463,0.7474475 v 3.5189567 c 0,0.3174998 -0.01323,0.5093226 -0.0463,0.7606767 z M 16.094674,5.858267 c 0,0.9061975 -0.436562,1.4419785 -1.177395,1.4419785 -0.760677,0 -1.276614,-0.5820831 -1.276614,-1.4353639 0,-0.8466663 0.515937,-1.4155202 1.296458,-1.4155202 0.734218,0 1.157551,0.5159373 1.157551,1.4089056 z m 1.812395,1.8057804 V 7.2936309 c 0,-0.08599 -0.0066,-0.1389062 -0.01984,-0.2645832 0.105833,0.1587499 0.165364,0.2315103 0.310885,0.3439582 0.304271,0.251354 0.608541,0.3571873 1.02526,0.3571873 1.031874,0 1.653645,-0.7011455 1.653645,-1.8653116 0,-1.150937 -0.608542,-1.8388533 -1.627187,-1.8388533 -0.601927,0 -1.051718,0.2381249 -1.362603,0.7276038 0.01984,-0.1719791 0.02646,-0.2910415 0.02646,-0.4696352 V 3.3910286 c 0,-0.3174998 0.01323,-0.5093227 0.0463,-0.7540621 h -0.582083 c 0.03307,0.2579686 0.0463,0.4696352 0.0463,0.7474475 v 3.5189567 c 0,0.3174998 -0.01323,0.5093226 -0.0463,0.7606767 z M 20.367693,5.858267 c 0,0.9061975 -0.436562,1.4419785 -1.177395,1.4419785 -0.760677,0 -1.276614,-0.5820831 -1.276614,-1.4353639 0,-0.8466663 0.515937,-1.4155202 1.296458,-1.4155202 0.734218,0 1.157551,0.5159373 1.157551,1.4089056 z m 2.454009,1.6999471 -0.30427,0.7276038 c -0.105833,0.2447395 -0.264583,0.3638019 -0.489479,0.3638019 -0.125677,0 -0.218281,-0.026458 -0.40349,-0.1124478 l -0.138906,0.4894789 c 0.251354,0.052917 0.396875,0.07276 0.542396,0.07276 0.469635,0 0.760677,-0.1918228 0.932656,-0.615156 L 24.442275,4.8726946 C 24.614254,4.455976 24.726702,4.1980074 24.766389,4.0987887 h -0.615156 c -0.02646,0.1852082 -0.08599,0.3638019 -0.218281,0.7011455 L 23.079671,7.0224331 22.120557,4.7999342 C 22.014724,4.5485801 21.928734,4.2839969 21.895661,4.0987887 h -0.648229 c 0.06615,0.1190624 0.06615,0.1190624 0.363802,0.7739059 z"
       id="text1"
       transform="scale(1.1089489,0.90175481)"
       aria-label="Hobby" /></g></svg>
