<?xml version="1.0" encoding="UTF-8" standalone="no"?>
<!-- Created with Inkscape (http://www.inkscape.org/) -->

<svg
   width="127.99999"
   height="127.99999"
   viewBox="0 0 33.866664 33.866664"
   version="1.1"
   id="svg1"
   xml:space="preserve"
   xmlns="http://www.w3.org/2000/svg"
   xmlns:svg="http://www.w3.org/2000/svg"><defs
     id="defs1" /><g
     id="layer1"><path
       d="M 2.7218789,31.144788 V 2.721878 H 13.974732 v 3.35414 H 4.9292129 v 8.80218 h 7.8280711 v 3.35414 H 4.9292129 v 12.91245 z m 14.6327591,0 V 2.721878 h 5.745895 q 1.94564,0 2.969661,0.40715 1.43363,0.56226 2.446273,2.03575 1.319849,1.90003 1.968396,4.86641 0.659924,2.94698 0.659924,6.74704 0,3.23781 -0.443742,5.73887 -0.443743,2.50107 -1.137802,4.14905 -0.694058,1.6286 -1.524653,2.57861 -0.819217,0.93063 -1.991152,1.41533 -1.160557,0.4847 -2.673832,0.4847 z m 2.207334,-3.35413 h 3.561317 q 1.649812,0 2.582809,-0.52348 0.944375,-0.52348 1.501898,-1.47349 0.785082,-1.33778 1.217447,-3.5868 0.443742,-2.2684 0.443742,-5.48682 0,-4.45926 -0.864729,-6.84399 -0.85335,-2.40412 -2.082176,-3.21842 -0.887485,-0.58164 -2.855881,-0.58164 h -3.504427 z"
       id="text2"
       style="font-size:200px;line-height:273.2px;font-family:Arial;-inkscape-font-specification:'Arial, Normal';text-align:center;letter-spacing:4.4px;white-space:pre;fill:#0f0f0f;fill-opacity:0.995455;stroke:#000000;stroke-width:0.15209"
       aria-label="FD" /></g></svg>
