<?xml version="1.0" encoding="UTF-8" standalone="no"?>
<!-- Created with Inkscape (http://www.inkscape.org/) -->

<svg
   width="63.999996"
   height="31.999998"
   viewBox="0 0 16.933332 8.466666"
   version="1.1"
   id="svg1"
   xml:space="preserve"
   xmlns="http://www.w3.org/2000/svg"
   xmlns:svg="http://www.w3.org/2000/svg"><defs
     id="defs1" /><g
     id="g8"><rect
       style="fill:#54b0f8;fill-opacity:0.996078;stroke:#54b0f8;stroke-width:0.505414;stroke-opacity:1"
       id="rect8"
       width="16.427919"
       height="7.9612522"
       x="0.2527068"
       y="0.25270715" /><path
       d="m 3.5168452,2.5188348 c -0.8805326,0 -1.4604988,0.6815661 -1.4604988,1.7102652 0,1.0540991 0.5799662,1.7187319 1.4901321,1.7187319 0.7535327,0 1.1091324,-0.474133 1.2572989,-0.8932326 0.00847,-0.0254 0.0127,-0.046567 0.0127,-0.071967 0,-0.0889 -0.0762,-0.1523999 -0.1481665,-0.1693332 -0.029633,-0.00847 -0.059267,-0.0127 -0.084667,-0.0127 -0.080433,0 -0.1566332,0.0381 -0.1904998,0.1312332 -0.1100666,0.3386664 -0.3513664,0.6434662 -0.859366,0.6434662 -0.6349994,0 -1.0540991,-0.5249329 -1.0540991,-1.3419656 0,-0.8339659 0.4190997,-1.3461988 1.0540991,-1.3461988 0.4825996,0 0.6942661,0.2497664 0.821266,0.5545662 0.0381,0.080433 0.1058332,0.1100665 0.1777998,0.1100665 0.033867,0 0.067733,-0.00423 0.1016,-0.016933 0.0635,-0.021167 0.1312332,-0.080433 0.1312332,-0.1693332 0,-0.0254 -0.00423,-0.055033 -0.016933,-0.084667 C 4.5963443,2.9083011 4.2619112,2.5188348 3.5168452,2.5188348 Z m 3.4268826,0 c -0.9101659,0 -1.4816654,0.6730994 -1.4816654,1.7102652 0,1.0498658 0.5757328,1.7187319 1.4816654,1.7187319 0.9059326,0 1.4731988,-0.6730995 1.4731988,-1.7144986 0,-1.0456324 -0.5672662,-1.7144985 -1.4731988,-1.7144985 z m 0,0.3640663 c 0.6434661,0 1.0540991,0.5249329 1.0540991,1.3250322 0,0.8508993 -0.3936997,1.3715989 -1.0540991,1.3715989 -0.6476995,0 -1.0625658,-0.5291662 -1.0625658,-1.3461989 0,-0.8170326 0.4063997,-1.3504322 1.0625658,-1.3504322 z M 9.286877,5.4271323 c 0,0.3217331 0.1312332,0.4529663 0.4317997,0.4529663 h 1.6255983 c 0.110067,0 0.173567,-0.093133 0.173567,-0.1947332 0,-0.1058332 -0.0635,-0.1862665 -0.173567,-0.1862665 H 9.8456766 c -0.097367,0 -0.1523999,-0.0508 -0.1523999,-0.1481665 V 2.7347346 c 0,-0.1227666 -0.084667,-0.1777999 -0.2031998,-0.1777999 -0.1143,0 -0.2031999,0.055033 -0.2031999,0.1820332 z m 2.918877,0 c 0,0.3217331 0.131233,0.4529663 0.431799,0.4529663 h 0.753533 c 0.927099,0 1.485899,-0.6307661 1.485899,-1.6848652 0,-1.0202325 -0.550333,-1.6128987 -1.485899,-1.6128987 h -0.753533 c -0.300566,0 -0.431799,0.1312332 -0.431799,0.4571996 z M 12.60792,3.086101 c 0,-0.0889 0.05927,-0.1396999 0.1397,-0.1396999 h 0.634999 c 0.6985,0 1.075266,0.4444996 1.075266,1.2530656 0,0.8254993 -0.402166,1.3123322 -1.087966,1.3123322 h -0.626532 c -0.08467,0 -0.135467,-0.046567 -0.135467,-0.1439332 z"
       id="text8"
       style="font-size:4.23333px;line-height:10.4098px;font-family:'Hiragino Maru Gothic Pro';-inkscape-font-specification:'Hiragino Maru Gothic Pro';text-align:center;letter-spacing:0.264583px;word-spacing:0px;text-anchor:middle;fill:#ffffff;fill-opacity:0.996078;stroke:#ffffff;stroke-width:0.529167"
       aria-label="COLD" /></g></svg>
