<?xml version="1.0" encoding="UTF-8" standalone="no"?>
<!-- Created with Inkscape (http://www.inkscape.org/) -->

<svg
   width="61.000004"
   height="61.000004"
   viewBox="0 0 16.139584 16.139584"
   version="1.1"
   id="svg1"
   xml:space="preserve"
   xmlns="http://www.w3.org/2000/svg"
   xmlns:svg="http://www.w3.org/2000/svg"><defs
     id="defs1" /><g
     id="layer1"
     transform="translate(-245.93021,-245.93021)"><g
       style="fill:#1f1f1f"
       id="g1"
       transform="matrix(0.00661458,0,0,0.00661458,232.50923,204.36674)"><rect
         style="fill:#b3b3b3;fill-opacity:0.299197;stroke:#b3b3b3;stroke-width:40;stroke-opacity:0"
         id="rect3"
         width="2400.0012"
         height="2400.0012"
         x="2048.9985"
         y="6303.6133" /><path
         d="m 3168.9991,7823.6141 h 160.0001 V 7487.614 l 128.0001,128 112,-112 -320.0001,-320.0002 -320.0002,320.0002 112.0001,112 128,-128 z m 80.0001,480.0003 q -166.0001,0 -312.0002,-63.0001 -146,-63 -254.0001,-171 -108,-108.0001 -171.0001,-254.0002 -63,-146 -63,-312.0001 0,-166.0001 63,-312.0002 63.0001,-146 171.0001,-254.0001 108.0001,-108 254.0001,-171.0001 146.0001,-63 312.0002,-63 166.0001,0 312.0001,63 146.0001,63.0001 254.0002,171.0001 108,108.0001 171,254.0001 63.0001,146.0001 63.0001,312.0002 0,166.0001 -63.0001,312.0001 -63,146.0001 -171,254.0002 -108.0001,108 -254.0002,171 -146,63.0001 -312.0001,63.0001 z m 0,-160.0001 q 268.0001,0 454.0002,-186.0001 186.0001,-186.0001 186.0001,-454.0002 0,-268.0001 -186.0001,-454.0002 -186.0001,-186.0001 -454.0002,-186.0001 -268.0001,0 -454.0002,186.0001 -186.0001,186.0001 -186.0001,454.0002 0,268.0001 186.0001,454.0002 186.0001,186.0001 454.0002,186.0001 z m 0,-640.0003 z"
         id="path1"
         style="fill:#ffff00;stroke-width:2" /></g></g></svg>
