<?xml version="1.0" encoding="UTF-8" standalone="no"?>
<!-- Created with Inkscape (http://www.inkscape.org/) -->

<svg
   width="135"
   height="40"
   viewBox="0 0 35.718749 10.583333"
   version="1.1"
   id="svg1"
   xml:space="preserve"
   xmlns="http://www.w3.org/2000/svg"
   xmlns:svg="http://www.w3.org/2000/svg"><defs
     id="defs1"><style
       id="style1">
      .st0 {
        fill: #4285f4;
      }

      .st1 {
        fill: #a6a6a6;
      }

      .st2 {
        fill: #34a853;
      }

      .st3 {
        fill: #fbbc04;
      }

      .st4 {
        fill: #fff;
      }

      .st5 {
        fill: #ea4335;
      }
    </style><style
       id="style1-2">
      .st0 {
        fill: #4285f4;
      }

      .st1 {
        fill: #a6a6a6;
      }

      .st2 {
        fill: #34a853;
      }

      .st3 {
        fill: #fbbc04;
      }

      .st4 {
        fill: #fff;
      }

      .st5 {
        fill: #ea4335;
      }
    </style></defs><g
     id="layer1"><g
       id="g19"
       transform="scale(0.26458333)"><g
         id="g2"
         transform="scale(1.2402175,1)"><path
           d="M 99.32227,0 H 9.53468 C 9.16798,0 8.80568,0 8.43995,0.002 8.1338,0.004 7.83009,0.00981 7.521,0.0147 a 13.21476,13.21476 0 0 0 -2.0039,0.17671 6.66509,6.66509 0 0 0 -1.90088,0.627 6.43779,6.43779 0 0 0 -1.61865,1.17866 6.25844,6.25844 0 0 0 -1.17822,1.62109 6.60119,6.60119 0 0 0 -0.625,1.90332 12.993,12.993 0 0 0 -0.1792,2.002 C 0.00587,7.83008 0.00489,8.1377 0,8.44434 V 31.5586 c 0.00489,0.3105 0.00587,0.6113 0.01515,0.9219 a 12.99232,12.99232 0 0 0 0.1792,2.0019 6.58756,6.58756 0 0 0 0.625,1.9043 6.20778,6.20778 0 0 0 1.17822,1.6143 6.27445,6.27445 0 0 0 1.61865,1.1787 6.70082,6.70082 0 0 0 1.90088,0.6308 13.45514,13.45514 0 0 0 2.0039,0.1768 C 7.83009,39.9941 8.1338,39.998 8.43995,39.998 8.80567,40 9.168,40 9.53468,40 h 89.78759 c 0.3594,0 0.7246,0 1.084,-0.002 0.3047,0 0.6172,-0.0039 0.9219,-0.0107 a 13.279,13.279 0 0 0 2,-0.1768 6.80432,6.80432 0 0 0 1.9082,-0.6308 6.27742,6.27742 0 0 0 1.6172,-1.1787 6.39482,6.39482 0 0 0 1.1816,-1.6143 6.60413,6.60413 0 0 0 0.6191,-1.9043 13.50643,13.50643 0 0 0 0.1856,-2.0019 c 0.004,-0.3106 0.004,-0.6114 0.004,-0.9219 0.008,-0.3633 0.008,-0.7246 0.008,-1.0938 V 9.53613 c 0,-0.36621 0,-0.72949 -0.008,-1.09179 0,-0.30664 0,-0.61426 -0.004,-0.9209 a 13.5071,13.5071 0 0 0 -0.1856,-2.002 6.6177,6.6177 0 0 0 -0.6191,-1.90332 6.46619,6.46619 0 0 0 -2.7988,-2.7998 6.76754,6.76754 0 0 0 -1.9082,-0.627 13.04394,13.04394 0 0 0 -2,-0.17676 c -0.3047,-0.00488 -0.6172,-0.01074 -0.9219,-0.01269 C 100.04687,0 99.68167,0 99.32227,0 Z"
           style="fill:#a6a6a6"
           id="path1" /><path
           d="m 8.44483,39.125 c -0.30468,0 -0.602,-0.0039 -0.90429,-0.0107 A 12.68714,12.68714 0 0 1 5.6714,38.9512 5.88381,5.88381 0 0 1 4.01466,38.4033 5.40573,5.40573 0 0 1 2.61766,37.3867 5.32082,5.32082 0 0 1 1.59715,35.9902 5.72186,5.72186 0 0 1 1.05415,34.333 12.41351,12.41351 0 0 1 0.88765,32.458 C 0.88131,32.2471 0.87301,31.5449 0.87301,31.5449 V 8.44434 c 0,0 0.00884,-0.69141 0.01469,-0.89454 A 12.37039,12.37039 0 0 1 1.05323,5.67773 5.7555,5.7555 0 0 1 1.59669,4.01563 5.37349,5.37349 0 0 1 2.61183,2.61768 5.56543,5.56543 0 0 1 4.01417,1.59521 5.82309,5.82309 0 0 1 5.66749,1.05127 12.58589,12.58589 0 0 1 7.543,0.88721 L 8.44532,0.875 h 91.956 l 0.9131,0.0127 a 12.38493,12.38493 0 0 1 1.8584,0.16259 5.93833,5.93833 0 0 1 1.6709,0.54785 5.59374,5.59374 0 0 1 2.415,2.41993 5.76267,5.76267 0 0 1 0.53528,1.64893 12.995,12.995 0 0 1 0.1738,1.88721 c 0.003,0.2832 0.003,0.5874 0.003,0.89014 0.008,0.375 0.008,0.73193 0.008,1.09179 V 30.4648 c 0,0.3633 0,0.7178 -0.008,1.0752 0,0.3252 0,0.6231 -0.004,0.9297 a 12.73126,12.73126 0 0 1 -0.1709,1.8535 5.739,5.739 0 0 1 -0.54,1.67 5.48029,5.48029 0 0 1 -1.0156,1.3857 5.4129,5.4129 0 0 1 -1.3994,1.0225 5.86168,5.86168 0 0 1 -1.668,0.5498 12.54218,12.54218 0 0 1 -1.8692,0.1631 c -0.2929,0.0068 -0.5996,0.0107 -0.8974,0.0107 l -1.084,0.002 z"
           id="path2" /></g><g
         id="g10"><path
           d="m 41.16742,16.55462 h -4.05157 l -0.973,2.873 H 34.42678 L 38.26437,8.79837 h 1.783 l 3.83759,10.62922 h -1.74539 z m -3.632,-1.32573 H 40.747 l -1.58318,-4.66261 h -0.0443 z"
           style="fill:#ffffff"
           id="path3" /><path
           d="m 52.1728,15.55322 c 0,2.40821 -1.28895,3.95545 -3.23407,3.95545 a 2.62719,2.62719 0 0 1 -2.4383,-1.35582 h -0.03678 v 3.83842 H 44.87294 V 11.678 h 1.53972 v 1.289 h 0.02926 a 2.749,2.749 0 0 1 2.46756,-1.37 c 1.96685,-6e-5 3.26332,1.5547 3.26332,3.95622 z m -1.635,0 c 0,-1.569 -0.81082,-2.60046 -2.04794,-2.60046 -1.21539,0 -2.03289,1.05323 -2.03289,2.60046 0,1.56145 0.8175,2.60715 2.03289,2.60715 1.23714,0 2.04793,-1.02397 2.04793,-2.60715 z"
           style="fill:#ffffff"
           id="path4" /><path
           d="m 60.70267,15.55322 c 0,2.40821 -1.28937,3.95545 -3.23449,3.95545 a 2.62719,2.62719 0 0 1 -2.4383,-1.35582 H 54.9931 v 3.83842 H 53.4024 V 11.678 h 1.53972 v 1.289 h 0.02926 a 2.749,2.749 0 0 1 2.46756,-1.37 c 1.96684,-6e-5 3.26373,1.5547 3.26373,3.95622 z m -1.63543,0 c 0,-1.569 -0.81082,-2.60046 -2.04794,-2.60046 -1.21539,0 -2.03289,1.05323 -2.03289,2.60046 0,1.56145 0.8175,2.60715 2.03289,2.60715 1.23713,0 2.04795,-1.02397 2.04795,-2.60715 z"
           style="fill:#ffffff"
           id="path5" /><path
           d="m 66.3391,16.466 c 0.11786,1.05406 1.14183,1.74618 2.54112,1.74618 1.34077,0 2.30539,-0.69212 2.30539,-1.64253 0,-0.825 -0.58178,-1.319 -1.95933,-1.65758 l -1.37755,-0.33185 c -1.95181,-0.47144 -2.85792,-1.38424 -2.85792,-2.86544 0,-1.834 1.59823,-3.09364 3.86684,-3.09364 2.24688,0 3.7866,1.25969 3.83842,3.09364 h -1.60575 c -0.09613,-1.06075 -0.973,-1.701 -2.2544,-1.701 -1.2814,0 -2.15828,0.64782 -2.15828,1.59071 0,0.75147 0.56,1.19366 1.93008,1.53219 l 1.17109,0.28755 c 2.18085,0.51575 3.08612,1.39176 3.08612,2.94652 0,1.98859 -1.58318,3.23407 -4.10257,3.23407 -2.35722,0 -3.94876,-1.21623 -4.05158,-3.13878 z"
           style="fill:#ffffff"
           id="path6" /><path
           d="m 76.29961,9.84407 v 1.834 h 1.47368 v 1.25969 H 76.29961 V 17.21 c 0,0.6637 0.29507,0.973 0.94289,0.973 a 4.971,4.971 0 0 0 0.52327,-0.03678 v 1.25217 a 4.36838,4.36838 0 0 1 -0.88354,0.07356 c -1.569,0 -2.18085,-0.5893 -2.18085,-2.09224 v -4.442 H 73.5746 V 11.678 h 1.12678 V 9.844 Z"
           style="fill:#ffffff"
           id="path7" /><path
           d="m 78.6259,15.55322 c 0,-2.4383 1.43607,-3.97049 3.67542,-3.97049 2.24688,0 3.67626,1.53219 3.67626,3.97049 0,2.445 -1.42185,3.97049 -3.67626,3.97049 -2.25356,10e-6 -3.67542,-1.5255 -3.67542,-3.97049 z m 5.73089,0 c 0,-1.67262 -0.76651,-2.65981 -2.05546,-2.65981 -1.28895,0 -2.05546,0.99471 -2.05546,2.65981 0,1.67931 0.76651,2.659 2.05546,2.659 1.28895,0 2.05546,-0.97969 2.05546,-2.659 z"
           style="fill:#ffffff"
           id="path8" /><path
           d="m 87.2891,11.678 h 1.51715 v 1.319 H 88.843 a 1.84835,1.84835 0 0 1 1.864,-1.40012 2.4533,2.4533 0 0 1 0.545,0.05935 v 1.48789 a 2.22372,2.22372 0 0 0 -0.71469,-0.09613 1.6029,1.6029 0 0 0 -1.65758,1.783 v 4.59658 H 87.2891 Z"
           style="fill:#ffffff"
           id="path9" /><path
           d="m 98.5862,17.15145 a 3.11011,3.11011 0 0 1 -3.33689,2.37227 c -2.2544,0 -3.65369,-1.51046 -3.65369,-3.93372 0,-2.43078 1.40681,-4.00727 3.58682,-4.00727 2.14407,0 3.49236,1.47284 3.49236,3.82254 v 0.545 h -5.47342 v 0.09613 a 2.01837,2.01837 0 0 0 2.08472,2.19506 1.75329,1.75329 0 0 0 1.78965,-1.09 z m -5.3773,-2.31292 h 3.87437 a 1.86367,1.86367 0 0 0 -1.90082,-1.96686 1.96188,1.96188 0 0 0 -1.97355,1.96686 z"
           style="fill:#ffffff"
           id="path10" /></g><g
         id="g18"><path
           d="m 36.43654,30.81152 0.06592,-0.81934 a 3.13245,3.13245 0 0 0 0.95068,0.15137 c 0.292,0 0.40479,-0.02832 0.54639,-0.22656 a 4.56512,4.56512 0 0 0 0.43262,-2.31543 c 0,-0.84766 -0.26318,-1.09277 -0.93164,-1.09277 -0.15088,0 -0.32031,0.0098 -0.50879,0.01953 a 13.72712,13.72712 0 0 1 -1.76953,4.123 l -0.78174,-0.42383 a 11.0714,11.0714 0 0 0 1.64746,-3.61523 13.67658,13.67658 0 0 0 -1.53418,0.25488 l -0.16943,-0.8291 c 0.57422,-0.10352 1.26123,-0.19727 1.90137,-0.25391 a 17.609,17.609 0 0 0 0.292,-1.89258 l 0.92285,0.10352 c -0.085,0.57422 -0.18848,1.14941 -0.32031,1.71387 h 0.36719 c 1.1958,0 1.77,0.59277 1.77,1.85449 a 5.83361,5.83361 0 0 1 -0.5459,2.7959 1.1565,1.1565 0 0 1 -1.12988,0.60254 5.18145,5.18145 0 0 1 -1.20508,-0.15035 z m 3.03125,-5.07422 0.6875,-0.46191 a 5.29872,5.29872 0 0 1 1.60986,3.48438 l -0.90381,0.14063 a 4.39851,4.39851 0 0 0 -1.39355,-3.1631 z"
           style="fill:#ffffff"
           id="path11" /><path
           d="m 44.88674,30.94336 -0.188,-0.84766 c 0.23535,0.01953 0.5459,0.02832 0.73438,0.02832 1.86377,0 2.56982,-0.52637 2.56982,-1.30859 0,-0.62109 -0.40479,-0.97852 -1.30859,-0.97852 a 4.03864,4.03864 0 0 0 -2.57959,1.26172 l -0.7251,-0.32031 A 5.5238,5.5238 0 0 1 44.19,25.248 l 0.83789,0.27246 a 3.6874,3.6874 0 0 0 -0.71533,2.44824 4.81661,4.81661 0 0 1 2.57031,-0.876 c 1.26172,0 2.043,0.64941 2.043,1.7041 0,1.33691 -1.05469,2.15625 -3.58691,2.15625 -0.12263,8e-5 -0.30134,-0.0097 -0.45222,-0.0097 z m -0.87549,-6.251 0.23535,-0.8291 a 25.88517,25.88517 0 0 1 3.7002,0.84766 l -0.22607,0.81934 a 21.14206,21.14206 0 0 0 -3.70948,-0.83788 z"
           style="fill:#ffffff"
           id="path12" /><path
           d="m 51.65236,30.29395 a 5.94767,5.94767 0 0 0 2.53223,-1.63867 10.69472,10.69472 0 0 0 -1.76025,-1.18555 l 0.51758,-0.64941 a 11.44509,11.44509 0 0 1 1.78857,1.12891 5.95376,5.95376 0 0 0 0.92285,-2.1748 h -2.40088 a 9.70214,9.70214 0 0 1 -2.05225,2.36328 l -0.6875,-0.59277 a 8.92365,8.92365 0 0 0 2.61768,-3.59668 l 0.90381,0.2168 c -0.10352,0.26367 -0.207,0.53613 -0.32959,0.791 h 2.335 l 0.66846,0.31055 a 7.141,7.141 0 0 1 -4.50977,5.76172 z m 3.97264,-6.57129 0.52734,-0.25488 a 5.67722,5.67722 0 0 1 0.66846,1.1582 l -0.59326,0.27344 A 5.13466,5.13466 0 0 0 55.625,23.72266 Z m 1.17676,-0.09473 0.53662,-0.25391 a 6.35614,6.35614 0 0 1 0.6875,1.18652 l -0.59326,0.25391 a 5.1684,5.1684 0 0 0 -0.63084,-1.18652 z"
           style="fill:#ffffff"
           id="path13" /><path
           d="m 60.92141,30.99023 -0.48,-0.7627 a 3.94382,3.94382 0 0 0 3.314,-4.15137 h -3.9541 v 1.89258 H 58.85014 V 25.27539 H 61.2134 V 23.8916 h 0.95068 v 1.38379 h 1.76074 l 0.86621,0.24512 c -0.11328,2.67383 -1.00732,4.71679 -3.86962,5.46972 z"
           style="fill:#ffffff"
           id="path14" /><path
           d="m 66.62258,25.3418 0.52734,-0.77246 a 11.68341,11.68341 0 0 1 2.31543,1.40332 l -0.60254,0.80957 A 11.0534,11.0534 0 0 0 66.62258,25.3418 Z m 0.17871,4.6416 a 7.31748,7.31748 0 0 0 5.43262,-3.917 l 0.62109,0.69727 a 7.96352,7.96352 0 0 1 -5.69531,4.09473 z"
           style="fill:#ffffff"
           id="path15" /><path
           d="M 80.57082,30.43555 H 74.64895 V 24.833 h 5.92188 z m -4.98926,-4.73633 v 3.87012 h 4.04785 v -3.87012 z"
           style="fill:#ffffff"
           id="path16" /><path
           d="m 89.04934,27.9209 h -6.65625 v -0.96 h 6.65625 z"
           style="fill:#ffffff"
           id="path17" /><path
           d="m 91.314,23.91992 h 0.93164 v 2.41016 a 29.013,29.013 0 0 1 3.59668,1.79883 L 95.315,28.957 a 22.724,22.724 0 0 0 -3.06934,-1.64746 v 3.63379 H 91.314 Z m 2.21191,0.50879 0.55566,-0.26367 a 6.19409,6.19409 0 0 1 0.66895,1.28027 l -0.6123,0.27344 A 5.5162,5.5162 0 0 0 93.5259,24.42871 Z m 1.07324,-0.40527 0.56543,-0.26367 A 6.10514,6.10514 0 0 1 95.87063,25.04 l -0.6123,0.27344 a 6.12723,6.12723 0 0 0 -0.65919,-1.29 z"
           style="fill:#ffffff"
           id="path18" /></g><g
         id="_Group_"
         data-name="&lt;Group&gt;"><g
           id="_Group_2"
           data-name="&lt;Group&gt;"><path
             id="_Path_"
             data-name="&lt;Path&gt;"
             d="m 24.76888,20.30068 a 4.94881,4.94881 0 0 1 2.35656,-4.15206 5.06566,5.06566 0 0 0 -3.99116,-2.15768 c -1.67924,-0.17626 -3.30719,1.00483 -4.1629,1.00483 -0.87227,0 -2.18977,-0.98733 -3.6085,-0.95814 a 5.31529,5.31529 0 0 0 -4.47292,2.72787 c -1.934,3.34842 -0.49141,8.26947 1.3612,10.97608 0.9269,1.32535 2.01018,2.8058 3.42763,2.7533 1.38706,-0.05753 1.9051,-0.88448 3.5794,-0.88448 1.65876,0 2.14479,0.88448 3.591,0.8511 1.48838,-0.02416 2.42613,-1.33124 3.32051,-2.66914 a 10.962,10.962 0 0 0 1.51842,-3.09251 4.78205,4.78205 0 0 1 -2.91924,-4.39917 z"
             style="fill:#ffffff" /><path
             id="_Path_2"
             data-name="&lt;Path&gt;"
             d="m 22.03725,12.21089 a 4.87248,4.87248 0 0 0 1.11452,-3.49062 4.95746,4.95746 0 0 0 -3.20758,1.65961 4.63634,4.63634 0 0 0 -1.14371,3.36139 4.09905,4.09905 0 0 0 3.23677,-1.53038 z"
             style="fill:#ffffff" /></g></g></g></g></svg>
