<?xml version="1.0" encoding="UTF-8" standalone="no"?>
<!-- Created with Inkscape (http://www.inkscape.org/) -->

<svg
   width="63.999996"
   height="63.999996"
   viewBox="0 0 16.933332 16.933332"
   version="1.1"
   id="svg1"
   xml:space="preserve"
   xmlns="http://www.w3.org/2000/svg"
   xmlns:svg="http://www.w3.org/2000/svg"><defs
     id="defs1" /><g
     id="g1"
     transform="matrix(0.98380747,0,0,0.99353924,0.06896443,0.07108466)"><path
       style="fill:#ff0000;fill-opacity:0.995455;stroke:#ff0000;stroke-width:0.513123"
       id="path2"
       d="M 0.27170088,7.97004 A 8.2099714,8.2099314 0 0 1 8.9170513,0.26913378 8.2099714,8.2099314 0 0 1 16.666653,8.8708524 8.2099714,8.2099314 0 0 1 8.1087564,16.668828 8.2099714,8.2099314 0 0 1 0.26257936,8.1551088 L 8.4666357,8.4667006 Z" /><path
       style="fill:#ffffff;fill-opacity:0.995455;stroke:#ffffff;stroke-width:0.529167;stroke-opacity:1"
       d="M 0.11693042,16.779515 16.95491,0.11693042"
       id="path3" /><path
       style="fill:#0000ff;fill-opacity:0.995455;stroke:#0000ff;stroke-width:0.441942;stroke-opacity:1"
       d="M 28.836699,63.730626 C 26.635058,63.504383 23.356979,62.765892 21.323689,62.038082 18.029367,60.858887 13.63087,58.295339 11.159029,56.11388 L 10.275145,55.33383 25.964077,39.761836 C 34.59299,31.197239 44.79333,21.113171 48.631501,17.352796 l 6.978492,-6.837045 1.307916,1.658695 c 9.633797,12.217554 9.18111,29.286707 -1.085825,40.942468 -5.378846,6.10645 -12.929966,9.887125 -21.250143,10.639462 -2.534841,0.229209 -3.297404,0.22579 -5.745242,-0.02575 z"
       id="path4"
       transform="scale(0.26458333)" /><path
       style="font-weight:bold;font-size:2.64583px;line-height:7.22838px;font-family:'Hiragino Maru Gothic Pro';-inkscape-font-specification:'Hiragino Maru Gothic Pro Bold';text-align:center;letter-spacing:0.264583px;word-spacing:0px;text-anchor:middle;fill:#fffafa;fill-opacity:0.995455;stroke:#fffafa;stroke-width:0.529167"
       d="M 3.9873485,5.8942501 H 2.860225 V 5.1243136 c 0,-0.074083 -0.055562,-0.108479 -0.1269998,-0.108479 -0.074083,0 -0.1269999,0.034396 -0.1269999,0.108479 V 7.000207 c 0,0.071437 0.052917,0.1084791 0.1269999,0.1084791 0.071437,0 0.1269998,-0.037042 0.1269998,-0.1084791 V 6.1244373 H 3.9873485 V 7.000207 c 0,0.071437 0.055563,0.1084791 0.1322915,0.1084791 0.068792,0 0.1217082,-0.037042 0.1217082,-0.1084791 V 5.1243136 c 0,-0.074083 -0.052917,-0.108479 -0.1217082,-0.108479 -0.076729,0 -0.1322915,0.034396 -0.1322915,0.108479 z m 1.8176834,-0.902228 c -0.5688534,0 -0.9260405,0.420687 -0.9260405,1.0689153 0,0.6561658 0.3598329,1.074207 0.9260405,1.074207 0.5662076,0 0.9207488,-0.420687 0.9207488,-1.0715612 0,-0.6535199 -0.3545412,-1.0715611 -0.9207488,-1.0715611 z m 0,0.2275414 c 0.4021661,0 0.6588116,0.3280829 0.6588116,0.8281448 0,0.5318118 -0.2460622,0.8572489 -0.6588116,0.8572489 -0.404812,0 -0.6641033,-0.3307288 -0.6641033,-0.841374 0,-0.5106451 0.2539996,-0.8440197 0.6641033,-0.8440197 z m 1.9393953,0.044979 V 7.000207 c 0,0.071437 0.055562,0.1084791 0.1269998,0.1084791 0.071437,0 0.1269999,-0.037042 0.1269999,-0.1084791 V 5.2645426 h 0.6006034 c 0.060854,0 0.1005415,-0.052917 0.1005415,-0.1137707 0,-0.0635 -0.037042,-0.1190623 -0.1005415,-0.1190623 H 7.141178 c -0.0635,0 -0.1005416,0.055562 -0.1005416,0.1190623 0,0.060854 0.037042,0.1137707 0.1031874,0.1137707 z"
       id="text5"
       aria-label="HOT" /><path
       style="font-weight:bold;font-size:2.64583px;line-height:7.22838px;font-family:'Hiragino Maru Gothic Pro';-inkscape-font-specification:'Hiragino Maru Gothic Pro Bold';text-align:center;letter-spacing:0.264583px;word-spacing:0px;text-anchor:middle;fill:#fffafa;fill-opacity:0.995455;stroke:#fffafa;stroke-width:0.529167"
       d="m 8.2644867,10.332911 c -0.5503327,0 -0.9128114,0.425979 -0.9128114,1.068915 0,0.658812 0.3624787,1.074207 0.9313322,1.074207 0.4709577,0 0.6932074,-0.296333 0.7858115,-0.55827 0.00529,-0.01588 0.00794,-0.0291 0.00794,-0.04498 0,-0.05556 -0.047625,-0.09525 -0.092604,-0.105833 -0.018521,-0.0053 -0.037042,-0.0079 -0.052917,-0.0079 -0.050271,0 -0.097896,0.02381 -0.1190623,0.08202 -0.068794,0.211631 -0.2196061,0.40213 -0.5371057,0.40213 -0.3968745,0 -0.6588117,-0.328083 -0.6588117,-0.838728 0,-0.521228 0.2619372,-0.841374 0.6588117,-0.841374 0.3016246,0 0.4339161,0.156104 0.513291,0.346604 0.023813,0.05027 0.066146,0.06879 0.1111248,0.06879 0.021167,0 0.042333,-0.0026 0.0635,-0.01058 0.039687,-0.01323 0.082021,-0.05027 0.082021,-0.105833 0,-0.01587 -0.00265,-0.0344 -0.010583,-0.05292 C 8.9391738,10.576326 8.7301533,10.33291 8.2644873,10.33291 Z m 2.2410193,0 c -0.5688533,0 -0.9260403,0.420687 -0.9260403,1.068915 0,0.656166 0.3598329,1.074207 0.9260403,1.074207 0.566208,0 0.920749,-0.420687 0.920749,-1.071561 0,-0.65352 -0.354541,-1.071561 -0.920749,-1.071561 z m 0,0.227541 c 0.402166,0 0.658812,0.328083 0.658812,0.828145 0,0.531812 -0.246062,0.857249 -0.658812,0.857249 -0.404812,0 -0.6641031,-0.330729 -0.6641031,-0.841374 0,-0.510645 0.2540001,-0.84402 0.6641031,-0.84402 z m 1.563686,1.590144 c 0,0.201083 0.08202,0.283104 0.269875,0.283104 h 1.015999 c 0.06879,0 0.108479,-0.05821 0.108479,-0.121708 0,-0.06615 -0.03969,-0.116417 -0.108479,-0.116417 h -0.936624 c -0.06085,0 -0.09525,-0.03175 -0.09525,-0.0926 v -1.635123 c 0,-0.07673 -0.05292,-0.111124 -0.127,-0.111124 -0.07144,0 -0.127,0.03439 -0.127,0.11377 z m 1.923516,0 c 0,0.201083 0.08202,0.283104 0.269875,0.283104 h 0.470958 c 0.579436,0 0.928686,-0.394229 0.928686,-1.05304 0,-0.637645 -0.343958,-1.008061 -0.928686,-1.008061 h -0.470958 c -0.187854,0 -0.269875,0.08202 -0.269875,0.285749 z m 0.251354,-1.463144 c 0,-0.05556 0.03704,-0.08731 0.08731,-0.08731 h 0.396875 c 0.436562,0 0.672041,0.277812 0.672041,0.783166 0,0.515936 -0.251354,0.820207 -0.679979,0.820207 h -0.391582 c -0.05292,0 -0.08467,-0.0291 -0.08467,-0.08996 z"
       id="text5-2"
       aria-label="COLD" /></g></svg>
