<?xml version="1.0" encoding="UTF-8" standalone="no"?>
<!-- Created with Inkscape (http://www.inkscape.org/) -->

<svg
   width="63.999996"
   height="63.999996"
   viewBox="0 0 16.933332 16.933332"
   version="1.1"
   id="svg1"
   xml:space="preserve"
   xmlns="http://www.w3.org/2000/svg"
   xmlns:svg="http://www.w3.org/2000/svg"><defs
     id="defs1" /><g
     id="layer1"
     transform="matrix(0.98373661,0,0,0.9935867,0.06956929,0.07068361)"><path
       style="display:inline;fill:#000000;fill-opacity:0.995455;stroke:#000000;stroke-width:0.513123"
       id="path2"
       d="M 0.34095451,7.9535498 A 8.2099714,8.2099314 0 0 1 8.9863049,0.25264355 8.2099714,8.2099314 0 0 1 16.735907,8.8543622 8.2099714,8.2099314 0 0 1 8.17801,16.652338 8.2099714,8.2099314 0 0 1 0.33183299,8.1386186 L 8.5358893,8.4502104 Z" /><path
       style="display:inline;fill:#ffffff;fill-opacity:0.995455;stroke:#ffffff;stroke-width:0.529167;stroke-opacity:1"
       d="M 0.11693042,16.779515 16.95491,0.11693042"
       id="path3" /><path
       style="fill:#f8f8ff;fill-opacity:0.995455;stroke:#000000;stroke-width:0.11693;stroke-opacity:1"
       d="M 7.6297098,16.862061 C 7.0471923,16.802201 6.1798673,16.606809 5.6418926,16.414242 4.77027,16.102247 3.606501,15.423975 2.9524931,14.846797 L 2.7186321,14.640409 6.869662,10.520319 C 9.1527285,8.2542694 11.851568,5.5861931 12.867084,4.5912606 l 1.846393,-1.8089682 0.346053,0.4388631 c 2.548942,3.2325611 2.429169,7.7487745 -0.287291,10.8326945 -1.423153,1.615665 -3.421054,2.615968 -5.6224339,2.815024 -0.6706767,0.06064 -0.8724381,0.05974 -1.5200953,-0.0068 z"
       id="path4" /><path
       style="font-weight:bold;font-size:2.64583px;line-height:7.22838px;font-family:'Hiragino Maru Gothic Pro';-inkscape-font-specification:'Hiragino Maru Gothic Pro Bold';text-align:center;letter-spacing:0.264583px;word-spacing:0px;text-anchor:middle;fill-opacity:0.995455;stroke:#000000;stroke-width:0.529167"
       d="m 10.074899,10.879411 c 0.07144,-0.179917 0.201083,-0.55827 0.251353,-0.727603 -0.01058,0.179916 -0.04233,0.65352 -0.04233,1.029227 v 0.732895 c 0,0.07144 0.05292,0.105834 0.124354,0.105834 0.06879,0 0.121708,-0.0344 0.121708,-0.105834 v -1.830914 c 0,-0.09525 -0.06879,-0.1561039 -0.166687,-0.1561039 -0.116417,0 -0.177271,0.039687 -0.219604,0.1455209 l -0.4788951,1.21179 C 9.6039408,11.435035 9.5245659,11.665222 9.4981076,11.781639 9.4742951,11.667868 9.3869827,11.41916 9.3340661,11.289515 L 8.8472334,10.067141 C 8.807546,9.9692454 8.7519835,9.9269121 8.635567,9.9269121 c -0.1005415,0 -0.1693331,0.060854 -0.1693331,0.1561039 v 1.830914 c 0,0.07144 0.050271,0.105834 0.1217082,0.105834 0.074083,0 0.124354,-0.0344 0.124354,-0.105834 v -0.73554 c 0,-0.373062 -0.03175,-0.851958 -0.039687,-1.023937 0.050271,0.164042 0.1772707,0.547687 0.2539997,0.738187 l 0.3995203,1.00277 c 0.037042,0.0926 0.087312,0.124354 0.1693332,0.124354 0.084667,0 0.1322914,-0.03175 0.1693331,-0.121709 z m 1.180041,1.031874 c 0,0.07144 0.05292,0.108479 0.124354,0.108479 0.07408,0 0.129645,-0.03704 0.129645,-0.108479 v -1.875894 c 0,-0.074083 -0.05556,-0.1084789 -0.129645,-0.1084789 -0.07144,0 -0.124354,0.034396 -0.124354,0.1084789 z m 0.986896,-0.1905 c 0,0.201083 0.08202,0.283104 0.269874,0.283104 h 1.015999 c 0.06879,0 0.108479,-0.05821 0.108479,-0.121709 0,-0.06615 -0.03969,-0.116416 -0.108479,-0.116416 h -0.936624 c -0.06085,0 -0.09525,-0.03175 -0.09525,-0.0926 v -1.635123 c 0,-0.076729 -0.05292,-0.1111249 -0.127,-0.1111249 -0.07144,0 -0.126999,0.034396 -0.126999,0.1137709 z m 2.640535,-0.904874 0.682625,-0.687916 c 0.01852,-0.01852 0.02646,-0.04498 0.02646,-0.07144 0,-0.03704 -0.01588,-0.076729 -0.04498,-0.1005418 -0.02381,-0.021167 -0.05556,-0.03175 -0.08731,-0.03175 -0.0291,0 -0.06085,0.010583 -0.08202,0.034396 l -0.957791,1.0001238 v -0.923395 c 0,-0.074083 -0.05292,-0.1084788 -0.124354,-0.1084788 -0.07408,0 -0.127,0.034396 -0.127,0.1084788 v 1.875894 c 0,0.07144 0.05292,0.108479 0.127,0.108479 0.07144,0 0.124354,-0.03704 0.124354,-0.108479 v -0.635 l 0.288396,-0.293687 0.74877,0.994832 c 0.02117,0.0291 0.05821,0.04498 0.0926,0.04498 0.0291,0 0.05556,-0.0079 0.07938,-0.02646 0.03439,-0.02646 0.05821,-0.06615 0.05821,-0.105833 0,-0.02381 -0.0079,-0.04763 -0.02381,-0.06879 z"
       id="text5"
       aria-label="MILK" /><path
       style="font-weight:bold;font-size:2.11667px;line-height:5.7827px;font-family:'Hiragino Maru Gothic Pro';-inkscape-font-specification:'Hiragino Maru Gothic Pro Bold';text-align:center;letter-spacing:0.264583px;word-spacing:0px;text-anchor:middle;fill:#f8f8ff;fill-opacity:0.995455;stroke:#f8f8ff;stroke-width:0.529167"
       d="M 2.0626156,5.7936691 C 1.8255486,5.7471023 1.7514651,5.6687855 1.7514651,5.5163853 c 0,-0.1397002 0.1121835,-0.2624671 0.3577172,-0.2624671 0.2349504,0 0.3238505,0.1185335 0.3577172,0.2391837 0.016933,0.04445 0.055033,0.061383 0.093133,0.061383 0.0127,0 0.0254,-0.00212 0.035983,-0.00423 0.042333,-0.00847 0.078317,-0.040217 0.078317,-0.084667 0,-0.010583 -0.00212,-0.021167 -0.00635,-0.03175 -0.046566,-0.152403 -0.1777996,-0.3556033 -0.5588002,-0.3556033 -0.3979339,0 -0.5630342,0.2159004 -0.5630342,0.4381507 0,0.2772838 0.1439336,0.3979339 0.4614341,0.4635507 l 0.1693336,0.035983 c 0.249767,0.0508 0.3450171,0.1270002 0.3450171,0.3005671 0,0.1820336 -0.1502835,0.2984505 -0.3915839,0.2984505 -0.3090338,0 -0.3788839,-0.1587503 -0.416984,-0.3005671 -0.0127,-0.04445 -0.052917,-0.0635 -0.093133,-0.0635 -0.0127,0 -0.023283,0.00212 -0.035983,0.00423 -0.04445,0.010583 -0.080434,0.042333 -0.080434,0.0889 0,0.00847 0.00212,0.016933 0.00423,0.027517 0.0508,0.1714503 0.1502835,0.4212173 0.6328843,0.4212173 0.3788839,0 0.5884342,-0.2053169 0.5884342,-0.4783673 0,-0.3069172 -0.1799169,-0.4191007 -0.5101174,-0.4889508 z m 1.784351,0.099483 -0.4826008,-0.7535344 c -0.021167,-0.03175 -0.048683,-0.04445 -0.0762,-0.04445 -0.01905,0 -0.0381,0.00635 -0.05715,0.014817 -0.033867,0.01905 -0.061383,0.0508 -0.061383,0.086783 0,0.014817 0.00423,0.027517 0.0127,0.042333 L 3.745367,6.0815354 v 0.6032509 c 0,0.05715 0.040217,0.086783 0.1016002,0.086783 0.05715,0 0.099483,-0.029633 0.099483,-0.086783 V 6.0815362 L 4.5052509,5.2433349 c 0.010583,-0.014817 0.014817,-0.03175 0.014817,-0.046567 0,-0.035983 -0.0254,-0.067733 -0.05715,-0.084667 -0.01905,-0.010583 -0.0381,-0.016933 -0.05715,-0.016933 -0.029633,0 -0.05715,0.0127 -0.0762,0.04445 z m 2.3981866,0.628651 C 6.0885196,6.1259862 6.0207861,5.9841693 5.893786,5.9460693 6.0906363,5.9037359 6.2282198,5.7767357 6.2282198,5.5333187 c 0,-0.2603504 -0.1693336,-0.423334 -0.4762507,-0.423334 H 5.2566683 c -0.1502835,0 -0.2159003,0.065617 -0.2159003,0.2286003 v 1.3419687 c 0,0.061383 0.042333,0.091017 0.1016001,0.091017 0.05715,0 0.097367,-0.029633 0.097367,-0.0889 V 6.0180361 h 0.3894672 c 0.211667,0 0.2709338,0.1502835 0.423334,0.5630342 l 0.052917,0.1354668 c 0.014817,0.0381 0.046567,0.055033 0.08255,0.055033 0.014817,0 0.03175,-0.00212 0.046567,-0.00635 0.042333,-0.010583 0.06985,-0.042333 0.06985,-0.08255 0,-0.0127 -0.00212,-0.023283 -0.00635,-0.035983 z M 5.239735,5.8444691 V 5.3597517 c 0,-0.0508 0.0254,-0.074083 0.06985,-0.074083 h 0.429684 c 0.1883836,0 0.2857504,0.097367 0.2857504,0.2772837 0,0.1693336 -0.1185335,0.2815171 -0.2984505,0.2815171 z m 1.583267,0.3069172 c 0,0.4254506 0.2349503,0.6434676 0.6434676,0.6434676 0.4191007,0 0.6455843,-0.224367 0.6455843,-0.6434676 V 5.1840681 c 0,-0.059267 -0.042333,-0.086783 -0.1016001,-0.086783 -0.059267,0 -0.1016002,0.027517 -0.1016002,0.086783 v 0.9588515 c 0,0.3111505 -0.1524002,0.467784 -0.4445007,0.467784 -0.2857504,0 -0.4381506,-0.1545169 -0.4381506,-0.4656673 V 5.1840681 c 0,-0.059267 -0.04445,-0.086783 -0.099483,-0.086783 -0.061383,0 -0.1037168,0.027517 -0.1037168,0.086783 z m 2.1103191,-0.067734 h 0.4783674 c 0.3365505,0 0.5312841,-0.1841502 0.5312841,-0.5016507 0,-0.3005672 -0.1883836,-0.4720174 -0.5228175,-0.4720174 H 8.9502544 c -0.1502835,0 -0.2159003,0.065617 -0.2159003,0.2286003 v 1.3419687 c 0,0.061383 0.040217,0.091017 0.099484,0.091017 0.05715,0 0.099483,-0.029633 0.099483,-0.0889 z m 0,-0.1778002 v -0.541867 c 0,-0.046567 0.021167,-0.074083 0.067733,-0.074083 h 0.4064006 c 0.211667,0 0.3280838,0.1058335 0.3280838,0.2963338 0,0.205317 -0.1143001,0.3196172 -0.3280838,0.3196172 z"
       id="text5-2"
       aria-label="SYRUP" /></g></svg>
