<?xml version="1.0" encoding="UTF-8" standalone="no"?>
<!-- Created with Inkscape (http://www.inkscape.org/) -->

<svg
   width="63.999996"
   height="31.999998"
   viewBox="0 0 16.933332 8.466666"
   version="1.1"
   id="svg1"
   xml:space="preserve"
   xmlns="http://www.w3.org/2000/svg"
   xmlns:svg="http://www.w3.org/2000/svg"><defs
     id="defs1" /><rect
     style="fill:#000000;fill-opacity:0.996078;stroke:#000000;stroke-width:0.505414;stroke-opacity:1"
     id="rect8"
     width="16.427919"
     height="7.9612522"
     x="0.2527068"
     y="0.25270715" /><path
     style="font-size:4.23333px;line-height:10.4098px;font-family:'Hiragino Maru Gothic Pro';-inkscape-font-specification:'Hiragino Maru Gothic Pro';text-align:center;letter-spacing:0.264583px;word-spacing:0px;text-anchor:middle;fill:#ffffff;fill-opacity:0.996078;stroke:#ffffff;stroke-width:0.529167"
     d="M 1.6742913,3.9475845 C 1.2001584,3.8544512 1.0519918,3.697818 1.0519918,3.3930183 c 0,-0.2793998 0.2243665,-0.5249329 0.7154327,-0.5249329 0.4698996,0 0.6476995,0.2370665 0.7154328,0.4783663 0.033867,0.0889 0.1100665,0.1227665 0.1862665,0.1227665 0.0254,0 0.0508,-0.00423 0.071967,-0.00847 0.084667,-0.016933 0.1566332,-0.080433 0.1566332,-0.1693332 0,-0.021167 -0.00423,-0.042333 -0.0127,-0.0635 C 2.7918903,2.9231187 2.5294239,2.516719 1.7674245,2.516719 c -0.79586595,0 -1.12606568,0.4317997 -1.12606568,0.8762993 0,0.5545662 0.28786643,0.795866 0.92286588,0.9270992 l 0.3386664,0.071967 C 2.402424,4.493684 2.5929238,4.6460839 2.5929238,4.993217 c 0,0.3640663 -0.3005664,0.5968995 -0.783166,0.5968995 -0.6180661,0 -0.757766,-0.3174998 -0.83396592,-0.6011329 -0.0254,-0.0889 -0.10583325,-0.1269999 -0.18626651,-0.1269999 -0.0254,0 -0.0465666,0.00423 -0.0719666,0.00847 -0.0888999,0.021167 -0.16086653,0.084667 -0.16086653,0.1777998 0,0.016933 0.004233,0.033867 0.008467,0.055033 0.10159991,0.3428997 0.30056641,0.8424327 1.26576556,0.8424327 0.7577661,0 1.1768658,-0.410633 1.1768658,-0.9567326 0,-0.6138328 -0.3598331,-0.8381993 -1.0202325,-0.9778992 z M 4.9784032,4.146551 4.0132041,2.6394856 c -0.042333,-0.0635 -0.097367,-0.0889 -0.1523999,-0.0889 -0.0381,0 -0.0762,0.0127 -0.1142999,0.029633 -0.067733,0.0381 -0.1227666,0.1015999 -0.1227666,0.1735665 0,0.029633 0.00847,0.055033 0.0254,0.084667 l 1.1260657,1.6848653 v 1.2064989 c 0,0.1142999 0.080433,0.1735666 0.2031998,0.1735666 0.1142999,0 0.1989665,-0.059267 0.1989665,-0.1735666 V 4.5233174 L 6.2949688,2.8469188 c 0.021167,-0.029633 0.029633,-0.0635 0.029633,-0.093133 0,-0.071967 -0.0508,-0.1354665 -0.1142999,-0.1693332 -0.0381,-0.021167 -0.0762,-0.033867 -0.1142999,-0.033867 -0.059267,0 -0.1142999,0.0254 -0.1523999,0.0889 z M 9.5101834,5.4038499 C 9.196917,4.6122173 9.0614504,4.3285842 8.8074506,4.2523842 9.2011503,4.1677177 9.4763168,3.9137179 9.4763168,3.4268849 9.4763168,2.9061854 9.1376504,2.580219 8.5238176,2.580219 H 7.5332184 c -0.3005664,0 -0.4317997,0.1312332 -0.4317997,0.4571996 v 2.6839311 c 0,0.1227665 0.084667,0.1820332 0.2031999,0.1820332 0.1142999,0 0.1947331,-0.059267 0.1947331,-0.1777999 V 4.3963175 h 0.7789327 c 0.423333,0 0.5418662,0.3005664 0.846666,1.1260657 l 0.1058332,0.2709331 c 0.029633,0.0762 0.093133,0.1100666 0.1650999,0.1100666 0.029633,0 0.0635,-0.00423 0.093133,-0.0127 0.084667,-0.021167 0.1396999,-0.084667 0.1396999,-0.1650999 0,-0.0254 -0.00423,-0.046567 -0.0127,-0.071967 z M 7.4993517,4.0491844 V 3.0797519 c 0,-0.1015999 0.0508,-0.1481665 0.1396999,-0.1481665 h 0.859366 c 0.3767663,0 0.5714995,0.1947331 0.5714995,0.5545662 0,0.3386663 -0.2370665,0.5630328 -0.5968995,0.5630328 z m 2.9019443,0.6138328 c 0,0.8508993 0.4699,1.2869323 1.286933,1.2869323 0.838199,0 1.291165,-0.448733 1.291165,-1.2869323 V 2.7283855 c 0,-0.1185332 -0.08467,-0.1735665 -0.2032,-0.1735665 -0.118533,0 -0.203199,0.055033 -0.203199,0.1735665 v 1.9176984 c 0,0.6222995 -0.3048,0.9355659 -0.889,0.9355659 -0.571499,0 -0.876299,-0.3090331 -0.876299,-0.9313326 V 2.7283855 c 0,-0.1185332 -0.0889,-0.1735665 -0.198966,-0.1735665 -0.122767,0 -0.207434,0.055033 -0.207434,0.1735665 z m 3.956047,-0.1354665 h 0.956733 c 0.673099,0 1.062566,-0.3682997 1.062566,-1.0032992 0,-0.6011328 -0.376767,-0.9440325 -1.045633,-0.9440325 H 14.39121 c -0.300566,0 -0.4318,0.1312332 -0.4318,0.4571996 v 2.6839311 c 0,0.1227665 0.08043,0.1820332 0.198967,0.1820332 0.1143,0 0.198966,-0.059267 0.198966,-0.1777999 z m 0,-0.3555997 V 3.0882186 c 0,-0.093133 0.04233,-0.1481666 0.135467,-0.1481666 h 0.812799 c 0.423333,0 0.656166,0.2116665 0.656166,0.5926662 0,0.410633 -0.228599,0.6392328 -0.656166,0.6392328 z"
     id="text8"
     aria-label="SYRUP" /></svg>
