<?xml version="1.0" encoding="UTF-8" standalone="no"?>
<!-- Created with Inkscape (http://www.inkscape.org/) -->

<svg
   width="63.999996"
   height="31.999998"
   viewBox="0 0 16.933332 8.466666"
   version="1.1"
   id="svg1"
   xml:space="preserve"
   xmlns="http://www.w3.org/2000/svg"
   xmlns:svg="http://www.w3.org/2000/svg"><defs
     id="defs1" /><rect
     style="fill:#ffffff;fill-opacity:0.996078;stroke:#000000;stroke-width:0.505414;stroke-opacity:1"
     id="rect8"
     width="16.427919"
     height="7.9612522"
     x="0.2527068"
     y="0.25270715" /><path
     d="M 5.5022779,4.0830487 C 5.6165778,3.7951823 5.8240109,3.1898161 5.9044442,2.918883 5.8875109,3.2067494 5.8367109,3.9645155 5.8367109,4.5656483 v 1.1726323 c 0,0.1142999 0.084667,0.1693332 0.1989665,0.1693332 0.1100666,0 0.1947332,-0.055033 0.1947332,-0.1693332 V 2.8088164 c 0,-0.1523998 -0.1100666,-0.2497664 -0.2666998,-0.2497664 -0.1862665,0 -0.2836331,0.0635 -0.3513664,0.2328331 L 4.8461118,4.7307482 C 4.7487452,4.972048 4.6217453,5.3403476 4.579412,5.5266142 4.541312,5.344581 4.4016121,4.946648 4.3169455,4.7392148 L 3.5380129,2.7834165 C 3.4745129,2.6267833 3.385613,2.55905 3.1993465,2.55905 c -0.1608666,0 -0.2709331,0.097367 -0.2709331,0.2497664 v 2.9294642 c 0,0.1142999 0.080433,0.1693332 0.1947331,0.1693332 0.1185333,0 0.1989665,-0.055033 0.1989665,-0.1693332 V 4.561415 c 0,-0.5968995 -0.0508,-1.3631322 -0.0635,-1.6382987 0.080433,0.2624665 0.2836331,0.8762993 0.4063996,1.1810991 l 0.6392328,1.6044319 c 0.059267,0.1481666 0.1396999,0.1989665 0.2709331,0.1989665 0.1354666,0 0.2116665,-0.0508 0.2709332,-0.1947331 z M 7.231595,5.7340473 c 0,0.1142999 0.084667,0.1735665 0.1989665,0.1735665 0.1185332,0 0.2074332,-0.059267 0.2074332,-0.1735665 V 2.7326165 c 0,-0.1185332 -0.0889,-0.1735665 -0.2074332,-0.1735665 -0.1142999,0 -0.1989665,0.055033 -0.1989665,0.1735665 z M 8.6518787,5.4292476 c 0,0.321733 0.1312332,0.4529663 0.4317997,0.4529663 h 1.6255986 c 0.110067,0 0.173567,-0.093133 0.173567,-0.1947332 0,-0.1058333 -0.0635,-0.1862665 -0.173567,-0.1862665 H 9.2106782 c -0.097366,0 -0.1523998,-0.0508 -0.1523998,-0.1481666 V 2.7368498 c 0,-0.1227665 -0.084667,-0.1777998 -0.2031999,-0.1777998 -0.1142999,0 -0.2031998,0.055033 -0.2031998,0.1820332 z M 12.717988,3.9814488 13.810187,2.880783 c 0.02963,-0.029633 0.04233,-0.071967 0.04233,-0.1142999 0,-0.059267 -0.0254,-0.1227665 -0.07197,-0.1608665 -0.0381,-0.033867 -0.0889,-0.0508 -0.1397,-0.0508 -0.04657,0 -0.09737,0.016933 -0.131233,0.055033 l -1.532458,1.600199 V 2.7326165 c 0,-0.1185332 -0.08467,-0.1735665 -0.198967,-0.1735665 -0.118533,0 -0.2032,0.055033 -0.2032,0.1735665 v 3.0014308 c 0,0.1142999 0.08467,0.1735665 0.2032,0.1735665 0.1143,0 0.198967,-0.059267 0.198967,-0.1735665 V 4.7180482 l 0.461433,-0.4698996 1.198032,1.591732 c 0.03387,0.046567 0.09313,0.071967 0.148166,0.071967 0.04657,0 0.0889,-0.0127 0.127,-0.042333 0.05503,-0.042333 0.09313,-0.1058333 0.09313,-0.1693332 0,-0.0381 -0.0127,-0.0762 -0.0381,-0.1100666 z"
     id="text8"
     style="font-size:4.23333px;line-height:10.4098px;font-family:'Hiragino Maru Gothic Pro';-inkscape-font-specification:'Hiragino Maru Gothic Pro';text-align:center;letter-spacing:0.264583px;word-spacing:0px;text-anchor:middle;fill:#ffffff;fill-opacity:0.996078;stroke:#000000;stroke-width:0.529167"
     aria-label="MILK" /></svg>
