<?xml version="1.0" encoding="UTF-8" standalone="no"?>
<!-- Created with Inkscape (http://www.inkscape.org/) -->

<svg
   width="127.99999"
   height="127.99999"
   viewBox="0 0 33.866664 33.866664"
   version="1.1"
   id="svg1"
   xmlns="http://www.w3.org/2000/svg"
   xmlns:svg="http://www.w3.org/2000/svg">
  <defs
     id="defs1" />
  <g
     id="layer1">
    <circle
       style="fill:#ffffff;fill-opacity:1;stroke:#e2fdf3;stroke-width:0.0584729;stroke-opacity:0.51"
       id="path1"
       cx="16.933332"
       cy="16.933332"
       r="16.933332" />
    <path
       d="m 26.771623,4.9444923 q -0.135467,1.4224013 -0.2032,2.7770693 -0.03387,1.3208013 -0.03387,2.032002 0,0.7789344 0.03387,1.4901344 0.03387,0.711201 0.06773,1.219202 H 25.857222 Q 25.518555,9.9228971 24.942822,8.466629 24.400954,7.0103609 23.351087,6.3668936 22.301219,5.7234264 20.33695,5.7234264 H 18.880682 V 25.027445 q 0,1.354668 0.237067,2.032002 0.270934,0.677334 1.016001,0.914401 0.778934,0.2032 2.235202,0.270933 v 0.677334 q -0.948267,-0.06773 -2.438402,-0.06773 -1.490135,-0.03387 -3.048003,-0.03387 -1.625601,0 -3.08187,0.03387 -1.422401,0 -2.302935,0.06773 v -0.677334 q 1.456268,-0.06773 2.201335,-0.270933 0.745068,-0.237067 1.016001,-0.914401 0.270934,-0.677334 0.270934,-2.032002 V 5.7234264 h -1.490135 q -1.896535,0 -2.980269,0.6434672 Q 9.4318733,7.0103609 8.8900061,8.466629 8.3481389,9.9228971 8.0094719,12.4629 H 7.2305378 q 0.067733,-0.508001 0.067733,-1.219202 0.033867,-0.7112 0.033867,-1.4901344 0,-0.7112007 -0.067733,-2.032002 -0.033867,-1.354668 -0.1693335,-2.7770693 1.4562681,0.033867 3.1834697,0.067733 1.727201,0.033867 3.48827,0.033867 1.761068,0 3.18347,0 1.422401,0 3.149603,0 1.727201,0 3.48827,-0.033867 1.761068,-0.033867 3.183469,-0.067733 z"
       id="text1"
       style="font-weight:500;font-size:33.8667px;line-height:83.2786px;font-family:'Playfair Display';-inkscape-font-specification:'Playfair Display Medium';text-align:center;letter-spacing:0.264583px;word-spacing:0px;text-anchor:middle;fill:#171717;stroke:#e2fdf3;stroke-width:0.0584729;stroke-opacity:0.51"
       aria-label="T" />
  </g>
</svg>
