<?xml version="1.0" encoding="UTF-8" standalone="no"?>
<!-- Created with Inkscape (http://www.inkscape.org/) -->

<svg
   width="512.00128"
   height="511.99976"
   viewBox="0 0 135.46701 135.4666"
   version="1.1"
   id="svg1"
   xml:space="preserve"
   xmlns="http://www.w3.org/2000/svg"
   xmlns:svg="http://www.w3.org/2000/svg"><defs
     id="defs1" /><g
     id="layer1"
     transform="translate(-2262.6938,-1200.9217)"><g
       id="g1"
       transform="translate(8.2682312,1.6536456)"><path
         style="fill:#fdfdfd"
         d="m 2294.2586,1329.8357 c -4.8948,-1.3641 -11.0987,-6.097 -13.5936,-10.3704 -1.7182,-2.9431 -2.2962,-5.2088 -2.2809,-8.9399 0.012,-2.8661 0.096,-3.4196 0.8694,-5.6886 2.2863,-6.7105 4.4279,-9.6505 11.3296,-15.5535 l 1.0995,-0.9404 3.1354,0.063 c 1.7245,0.034 3.465,-0.062 3.8679,-0.2157 0.4029,-0.1532 0.9795,-0.697 1.2814,-1.2086 l 0.5487,-0.9301 h 8.7581 c 5.2886,0 8.6584,0.096 8.5066,0.2415 -0.1382,0.1329 -6.264,3.0491 -13.6128,6.4805 -8.6126,4.0215 -13.573,6.4799 -13.9567,6.9169 -0.9441,1.0753 -0.8198,2.5937 0.3042,3.7178 0.5644,0.5643 1.1574,0.8995 1.5914,0.8995 0.3805,0 6.1967,-2.5691 12.9249,-5.7092 6.7282,-3.1401 12.3756,-5.7698 12.5498,-5.8438 0.2394,-0.1016 0.3364,1.3563 0.3969,5.9684 l 0.08,6.1028 0.7329,0.7331 c 0.7032,0.7034 0.857,0.7367 3.7916,0.8226 2.0073,0.059 3.3277,-0.022 3.8416,-0.2349 1.5092,-0.6251 1.5557,-0.8522 1.5557,-7.5864 0,-4.0544 0.093,-6.1588 0.2729,-6.1588 0.1501,0 5.4557,2.6908 11.7903,5.9795 12.966,6.7316 12.4574,6.5674 14.2388,4.5956 1.5098,-1.6711 1.1718,-2.9465 -1.1471,-4.3288 -0.811,-0.4835 -6.3861,-3.408 -12.389,-6.4988 -6.0028,-3.0908 -10.9838,-5.7322 -11.0688,-5.8697 -0.179,-0.2896 14.4075,-0.1182 18.5559,0.2181 2.6417,0.2142 2.6655,0.2224 3.8365,1.3185 0.648,0.6066 2.1307,1.8498 3.2949,2.7628 1.1642,0.9129 3.2014,2.7408 4.5271,4.0619 1.9859,1.9789 2.6005,2.7972 3.4893,4.6455 1.6294,3.3883 2.3686,6.806 2.5456,11.7685 0.2288,6.4167 -4.6688,14.1683 -10.952,17.3342 -2.2636,1.1405 -4.4679,1.6252 -7.8121,1.7177 -4.1134,0.1137 -6.462,-0.2738 -15.4491,-2.5488 -3.9859,-1.009 -7.9149,-1.9017 -8.7313,-1.9837 -1.8096,-0.1817 -5.0631,0.4556 -11.0092,2.1567 -6.8509,1.9599 -9.4632,2.4482 -13.1594,2.46 -1.9814,0.01 -3.7549,-0.1319 -4.5551,-0.3549 z m -22.2375,-43.9389 c -0.2911,-0.063 -1.1841,-0.2457 -1.9844,-0.4052 -6.2741,-1.2502 -12.4689,-8.5303 -14.7205,-17.2996 -0.6937,-2.7013 -0.7477,-3.2811 -0.7525,-8.0698 -0.01,-5.745 0.3337,-7.6477 2.0103,-11.27 1.142,-2.4673 3.4996,-4.8293 5.6575,-5.6681 2.0611,-0.8011 5.6913,-0.8838 7.6729,-0.1746 4.9951,1.7876 10.6409,7.4781 13.9673,14.0779 2.5401,5.0398 3.2024,7.7073 3.2169,12.9567 0.012,4.3289 -0.2834,5.9333 -1.6066,8.7279 -0.9746,2.0584 -3.2705,4.4916 -5.1073,5.4127 -2.2588,1.1327 -6.7689,2.0571 -8.3536,1.7121 z m 97.7635,-0.01 c -2.202,-0.3704 -4.5585,-1.0573 -5.8401,-1.7024 -2.7705,-1.3944 -5.1865,-4.6534 -6.2424,-8.4205 -0.4996,-1.7821 -0.6943,-7.4178 -0.3349,-9.6915 0.946,-5.9855 4.5751,-12.8552 9.3747,-17.7458 2.9168,-2.9721 4.4592,-4.0349 7.6729,-5.2868 1.9352,-0.7539 5.5406,-0.6875 7.6729,0.1413 2.1483,0.8351 4.4847,3.1775 5.664,5.6787 1.6537,3.5075 1.9669,5.2388 1.9891,10.9948 0.021,5.4246 -0.1313,6.6095 -1.3393,10.4307 -1.8495,5.8505 -6.2486,11.6053 -10.5645,13.8204 -2.7358,1.4041 -6.0004,2.1262 -8.0524,1.7811 z m -69.3208,-6.0446 c 0,-1.5942 0.1091,-1.9079 1.6334,-4.6964 0.8985,-1.6434 1.8099,-3.1964 2.0254,-3.451 0.3542,-0.4185 1.0369,-0.4631 7.0978,-0.4631 h 6.7059 v 5.1594 5.1594 h -8.7313 -8.7312 z m 27.6358,1.3727 c -0.073,-0.189 -0.099,-2.4828 -0.059,-5.0973 l 0.073,-4.7536 6.1076,-0.071 6.1076,-0.071 1.776,3.3063 c 1.7493,3.2566 1.7748,3.3331 1.6976,5.098 l -0.078,1.7917 -7.7458,0.07 c -6.1582,0.056 -7.7728,-2e-4 -7.8777,-0.2734 z m -20.2001,-16.267 c 1.6259,-2.244 3.6056,-4.2305 5.3714,-5.3901 1.365,-0.8965 1.7578,-1.0261 3.1089,-1.0261 h 1.5465 v 3.9688 3.9687 h -5.5646 -5.5646 z m 20.14,-2.3813 0.073,-3.9026 1.1526,-0.083 c 0.8995,-0.065 1.3902,0.074 2.2353,0.6338 2.263,1.4976 4.6613,4.1708 5.9739,6.6588 l 0.3141,0.5953 h -4.9111 -4.9112 z m -33.6294,-12.4844 c -1.2195,-0.4257 -2.3447,-0.9013 -2.5003,-1.057 -0.2011,-0.201 2.2433,-0.2803 8.4349,-0.2737 9.513,0.01 9.6392,0.04 5.6753,1.3387 -1.3436,0.4403 -2.5588,0.5856 -5.5562,0.6647 -3.6899,0.097 -3.9212,0.072 -6.0537,-0.6727 z m 45.9431,0.4957 c -1.4509,-0.2355 -3.4825,-0.8946 -4.4353,-1.4391 -0.5835,-0.3334 0.3659,-0.379 8.0566,-0.3873 6.1916,-0.01 8.636,0.073 8.4349,0.2737 -0.1556,0.1557 -1.2627,0.6223 -2.46,1.0369 -1.9276,0.6675 -2.5301,0.7518 -5.2599,0.7365 -1.6957,-0.01 -3.647,-0.1088 -4.3363,-0.2207 z m -53.1796,-6.0089 c -1.0664,-1.6113 -1.8191,-3.2188 -2.6284,-5.613 -0.76,-2.2484 -1.8289,-7.7378 -1.8184,-9.3385 0,-0.4683 -0.013,-1.5062 -0.036,-2.3066 -0.023,-0.8004 0.031,-2.3482 0.1203,-3.4396 0.089,-1.0914 0.1729,-2.2225 0.186,-2.5135 0.06,-1.3348 1.2237,-5.5069 2.1141,-7.5804 2.1542,-5.0161 5.3713,-8.3924 9.242,-9.6996 2.1687,-0.7323 6.3907,-0.7367 8.5839,-0.01 8.3257,2.763 13.6694,13.6074 13.6658,27.7329 -10e-4,3.9467 -0.5407,7.3074 -1.6249,10.119 l -0.794,2.0587 -12.0854,10e-4 c -11.5814,10e-4 -12.1213,0.023 -12.9454,0.5253 -0.4729,0.2884 -0.8599,0.6451 -0.8599,0.7928 0,0.5501 -0.4791,0.2379 -1.1193,-0.7297 z m 68.8527,0.7297 c 0,-0.1477 -0.387,-0.5044 -0.8599,-0.7928 -0.8241,-0.5024 -1.364,-0.5243 -12.9454,-0.5253 h -12.0854 l -0.8078,-2.0946 c -1.1112,-2.8813 -1.6129,-6.0593 -1.6068,-10.177 0.01,-5.2968 0.6632,-9.6236 2.1465,-14.1725 2.2437,-6.881 6.4327,-11.7799 11.515,-13.4665 2.1932,-0.7279 6.4152,-0.7235 8.5839,0.01 7.0808,2.3912 11.7153,11.4864 11.6363,22.8362 -0.01,1.0187 -0.011,2.2352 -0.01,2.7035 0.014,2.8847 -1.75,9.9591 -3.1834,12.7687 -1.2247,2.4006 -2.3842,3.8171 -2.3842,2.9125 z"
         id="path3" /><path
         style="fill:#49995f"
         d="m 2254.4585,1299.2144 c 0.019,-20.7833 0.126,-34.8792 0.2581,-33.975 0.6339,4.3385 2.337,8.7167 4.7463,12.202 4.759,6.8841 10.8688,9.6464 17.5852,7.9503 5.0131,-1.2659 8.1334,-4.4383 9.6058,-9.7662 0.696,-2.5188 0.6062,-8.8557 -0.1673,-11.7991 -2.4226,-9.219 -9.6991,-18.3537 -16.5822,-20.8169 -0.9178,-0.3285 -2.0522,-0.4687 -3.7042,-0.4579 -3.2996,0.022 -5.0164,0.7083 -7.1721,2.8695 -2.189,2.1946 -3.2572,4.563 -4.4228,9.8063 -0.065,0.2911 -0.1315,-12.1807 -0.1483,-27.7151 l -0.031,-28.2442 h 67.7333 67.7333 l -0.019,28.3765 c -0.018,28.0185 -0.025,28.3482 -0.4955,26.1276 -1.1583,-5.4627 -3.7536,-9.2018 -7.3672,-10.6144 -2.052,-0.802 -5.6917,-0.8572 -7.5968,-0.115 -3.2137,1.2519 -4.7561,2.3147 -7.6729,5.2868 -4.7996,4.8906 -8.4287,11.7603 -9.3747,17.7458 -0.3594,2.2737 -0.1647,7.9094 0.3349,9.6915 0.6827,2.4355 1.7712,4.4416 3.3146,6.1086 1.6492,1.7813 3.4963,2.8198 6.2544,3.5162 6.808,1.7192 13.0834,-1.1799 17.71,-8.1816 2.7703,-4.1924 3.8992,-7.2538 4.7404,-12.8545 0.055,-0.3638 0.1156,15.3226 0.1354,34.8588 l 0.036,35.5203 h -67.7333 -67.7333 z m 50.4406,30.3466 c 1.5624,-0.3407 4.7457,-1.1643 7.074,-1.8304 5.9461,-1.7011 9.1996,-2.3384 11.0092,-2.1567 0.8164,0.082 4.7454,0.9747 8.7313,1.9837 8.9871,2.275 11.3357,2.6625 15.4491,2.5488 3.3442,-0.092 5.5485,-0.5772 7.8121,-1.7177 6.2832,-3.1659 11.1808,-10.9175 10.952,-17.3342 -0.177,-4.9625 -0.9162,-8.3802 -2.5456,-11.7685 -0.8888,-1.8483 -1.5034,-2.6666 -3.4893,-4.6455 -1.3257,-1.3211 -3.3629,-3.149 -4.5271,-4.0619 -1.1642,-0.913 -2.6468,-2.1562 -3.2948,-2.7628 -1.1733,-1.0985 -1.1884,-1.1036 -3.7041,-1.2635 l -2.5261,-0.1605 3.0427,0.011 c 1.906,0.01 3.2641,-0.109 3.6353,-0.3104 1.3917,-0.7548 1.3919,-0.7565 1.3908,-15.9691 -9e-4,-13.5919 -0.02,-14.1333 -0.5253,-14.9621 -0.2883,-0.473 -0.5558,-0.8867 -0.5943,-0.9194 -0.039,-0.033 -5.6064,-0.1221 -12.3732,-0.1985 l -12.3031,-0.1389 -0.075,-2.5405 -0.075,-2.5406 5.8961,-0.1876 c 3.2429,-0.1032 9.2353,-0.1641 13.3165,-0.1354 5.8644,0.041 7.541,-0.023 7.9959,-0.3072 0.6255,-0.3907 1.2376,-1.6092 1.0664,-2.1229 -0.059,-0.1763 0.1502,-0.5978 0.4643,-0.9368 0.8858,-0.9558 2.1953,-3.5791 3.0524,-6.1149 0.7749,-2.2924 1.8478,-7.7723 1.8401,-9.3981 0,-0.4683 0,-1.6848 0.01,-2.7035 0.027,-3.849 -0.3274,-6.7186 -1.2013,-9.7324 -1.9909,-6.8663 -5.679,-11.4976 -10.435,-13.1038 -2.1687,-0.7323 -6.3907,-0.7367 -8.5839,-0.01 -2.6987,0.8956 -5.4689,2.9416 -7.4253,5.4841 -3.9804,5.1728 -6.2228,13.1393 -6.2362,22.1549 -0.01,4.8308 0.5006,7.5014 2.2452,11.8086 0.1605,0.3963 0.031,0.463 -0.8991,0.463 h -1.0867 v -2.5338 c 0,-2.4479 -0.026,-2.5602 -0.7734,-3.3073 -0.7727,-0.7728 -0.7763,-0.7734 -4.0968,-0.7734 -3.2978,0 -3.3302,0.01 -4.1876,0.7717 -0.8456,0.7552 -0.866,0.8258 -0.9557,3.3073 l -0.092,2.5355 h -1.8549 c -1.6615,0 -1.8353,-0.048 -1.6673,-0.463 1.703,-4.2045 2.2483,-7.0444 2.2495,-11.7147 0,-14.1255 -5.3401,-24.9699 -13.6658,-27.7329 -2.1932,-0.7279 -6.4152,-0.7235 -8.5839,0.01 -3.8707,1.3072 -7.0878,4.6835 -9.242,9.6996 -0.8904,2.0735 -2.054,6.2456 -2.1141,7.5804 -0.013,0.291 -0.097,1.4221 -0.186,2.5135 -0.089,1.0914 -0.1433,2.6392 -0.1203,3.4396 0.023,0.8004 0.039,1.8383 0.036,2.3066 -0.011,1.6179 1.062,7.1008 1.8386,9.3981 0.8571,2.5358 2.1666,5.1591 3.0524,6.1149 0.3141,0.339 0.5231,0.7605 0.4643,0.9368 -0.059,0.1763 0.028,0.6452 0.192,1.042 0.5799,1.3998 0.8782,1.4503 8.213,1.3893 3.7151,-0.031 10.0588,0.029 14.097,0.1324 l 7.3422,0.1887 v 2.6106 2.6106 l -8.7974,-0.07 c -8.7441,-0.069 -8.7979,-0.073 -8.8777,-0.6321 -0.044,-0.3093 -0.3808,-0.8451 -0.7481,-1.1906 -0.6088,-0.5727 -0.9372,-0.6361 -3.7114,-0.7177 -1.9954,-0.059 -3.313,0.022 -3.8264,0.2349 -1.6266,0.6738 -1.5557,-0.1608 -1.5557,18.314 v 16.8865 l 0.68,0.68 0.6801,0.6801 -1.3956,1.2261 c -5.7751,5.074 -7.273,6.802 -9.09,10.4866 -0.6458,1.3097 -1.5596,3.5124 -2.0306,4.8948 -0.773,2.269 -0.8576,2.8225 -0.8694,5.6886 -0.015,3.7311 0.5627,5.9968 2.2809,8.9399 2.4949,4.2734 8.6988,9.0063 13.5936,10.3704 2.1255,0.5923 7.273,0.4594 10.6405,-0.2747 z m 22.023,-23.7658 c 0,-0.055 0.2084,-0.2633 0.463,-0.463 0.4197,-0.3291 0.429,-0.3197 0.1,0.1 -0.3456,0.4408 -0.5629,0.5809 -0.5629,0.3631 z m -8.8827,-7.3084 c 0,-3.2742 0.038,-4.6137 0.084,-2.9766 0.046,1.6372 0.046,4.3161 0,5.9532 -0.046,1.6371 -0.084,0.2976 -0.084,-2.9766 z m 33.5601,5.6375 c 0.2575,-0.067 0.6146,-0.063 0.7938,0.01 0.1791,0.072 -0.032,0.1274 -0.4681,0.122 -0.4365,-0.01 -0.5831,-0.065 -0.3257,-0.1318 z m -51.3135,-24.2906 c 0,-1.0187 0.049,-1.403 0.1063,-0.854 0.057,0.5489 0.056,1.3824 0,1.8521 -0.058,0.4697 -0.1053,0.021 -0.1041,-0.9981 z m 17.7506,-3.4396 c 2e-4,-2.7649 0.039,-3.86 0.087,-2.4336 0.048,1.4263 0.047,3.6885 -5e-4,5.027 -0.048,1.3385 -0.087,0.1715 -0.087,-2.5934 z m -17.5728,-1.7932 v -3.3662 h 2.0253 c 1.9036,0 2.0016,0.028 1.629,0.4631 -0.2181,0.2546 -0.9695,1.5345 -1.6698,2.8442 -2.0861,3.9013 -1.9845,3.8983 -1.9845,0.059 z m 41.6718,0.012 c -0.8731,-1.6341 -1.6271,-3.0627 -1.6757,-3.1748 -0.048,-0.112 0.6957,-0.2037 1.6537,-0.2037 h 1.7418 v 3.175 c 0,1.7463 -0.03,3.1749 -0.066,3.1748 -0.036,-10e-5 -0.7805,-1.3372 -1.6537,-2.9713 z m -38.4307,-8.0715 -3.2411,-0.086 v -3.9606 -3.9606 h 7.1847 7.1848 l -1.5624,1.0261 c -1.7658,1.1596 -3.7455,3.1461 -5.3714,5.3901 l -1.1024,1.5213 h 5.5575 5.5575 l 0.085,-3.9026 0.085,-3.9026 -0.011,3.9688 -0.011,3.9687 -5.5563,0.012 c -3.0559,0.01 -7.0148,-0.027 -8.7974,-0.074 z m 29.1257,-0.061 4.9824,-0.1412 -1.3112,-1.9843 c -1.3765,-2.0832 -2.8456,-3.6149 -4.7908,-4.9949 l -1.1641,-0.826 h 6.6543 6.6542 v 3.9272 3.9272 l -4.4079,0.1739 c -2.4243,0.096 -6.0259,0.148 -8.0036,0.1165 -3.5265,-0.056 -3.4998,-0.06 1.3867,-0.1984 z m -44.5377,-21.2754 c 0,-0.055 0.2084,-0.2633 0.4631,-0.4631 0.4196,-0.3291 0.429,-0.3197 0.1,0.1 -0.3457,0.4408 -0.563,0.5809 -0.563,0.3632 z m 67.1704,-0.3632 c -0.3291,-0.4196 -0.3197,-0.429 0.1,-0.1 0.4408,0.3457 0.5809,0.563 0.3632,0.563 -0.055,0 -0.2633,-0.2084 -0.4631,-0.4631 z m -49.4433,5.2507 c 3.9639,-1.2987 3.8377,-1.3284 -5.6753,-1.3387 -6.1916,-0.01 -8.636,0.073 -8.4349,0.2737 0.1556,0.1557 1.2808,0.6313 2.5003,1.057 2.1325,0.7443 2.3638,0.77 6.0537,0.6727 2.9974,-0.079 4.2126,-0.2244 5.5562,-0.6647 z m 43.9294,-0.028 c 1.1973,-0.4146 2.3044,-0.8812 2.46,-1.0369 0.2011,-0.201 -2.2433,-0.2803 -8.4349,-0.2737 -7.6907,0.01 -8.6401,0.054 -8.0566,0.3873 2.0218,1.1552 4.5639,1.6363 8.7716,1.6598 2.7298,0.015 3.3323,-0.069 5.2599,-0.7365 z"
         id="path2" /><path
         style="fill:#8c0404"
         d="m 2319.6007,1306.0529 c -0.4614,-0.2086 -0.9675,-0.6193 -1.1244,-0.9126 -0.18,-0.3363 -0.2855,-2.7389 -0.2855,-6.5038 0,-4.1348 -0.089,-5.9705 -0.2885,-5.9705 -0.1587,0 -5.9445,2.6334 -12.8573,5.8519 -13.953,6.4965 -13.5549,6.3761 -14.829,4.4853 -0.6923,-1.0272 -0.7565,-1.859 -0.2232,-2.8904 0.4353,-0.8418 0.7471,-0.9991 16.882,-8.5188 6.0726,-2.8301 11.0435,-5.235 11.0463,-5.3442 0,-0.1091 -3.9537,-0.1957 -8.7922,-0.1924 l -8.7974,0.01 -0.4184,0.8539 c -0.5471,1.1169 -1.6373,1.4819 -4.4764,1.4989 -2.6666,0.016 -4.0692,-0.3211 -4.6224,-1.111 -0.5961,-0.851 -0.6135,-33.9109 -0.018,-34.7606 0.6803,-0.9711 1.7388,-1.2065 4.9958,-1.1108 2.7742,0.082 3.1026,0.145 3.7114,0.7177 0.3673,0.3455 0.704,0.8813 0.7481,1.1906 0.08,0.559 0.1336,0.5628 8.8777,0.6321 l 8.7974,0.07 v -2.6106 -2.6106 l -7.3422,-0.1887 c -4.0382,-0.1037 -10.3819,-0.1633 -14.097,-0.1324 -7.3297,0.061 -7.6334,0.01 -8.2104,-1.3833 -0.3676,-0.8873 -0.1726,-1.543 0.7034,-2.3662 l 0.6781,-0.6372 14.1087,-0.073 14.1087,-0.073 0.091,-2.5289 c 0.09,-2.474 0.1102,-2.5456 0.9555,-3.3006 0.8574,-0.7658 0.8898,-0.7717 4.1876,-0.7717 3.3205,0 3.3241,6e-4 4.0968,0.7734 0.7469,0.7468 0.7734,0.8602 0.7734,3.3002 v 2.5268 l 13.3404,0.073 13.3403,0.073 0.678,0.6372 c 0.876,0.8232 1.071,1.4789 0.7034,2.3662 -0.5801,1.4007 -0.824,1.4387 -8.8677,1.3821 -4.0812,-0.029 -10.0736,0.032 -13.3165,0.1354 l -5.8961,0.1876 0.075,2.5406 0.075,2.5405 12.3031,0.1389 c 6.7668,0.076 12.3347,0.1657 12.3732,0.1985 0.038,0.033 0.306,0.4464 0.5943,0.9194 0.5053,0.8288 0.5244,1.3702 0.5253,14.9621 9e-4,12.2849 -0.052,14.2055 -0.4135,14.9036 -0.6639,1.2841 -1.6048,1.4999 -5.5386,1.2707 -5.0264,-0.2928 -18.8099,-0.2955 -18.5076,0 0.1382,0.1335 5.5496,2.983 12.0253,6.3323 6.4757,3.3492 12.1847,6.4334 12.6868,6.8537 0.7492,0.6272 0.9128,0.946 0.9128,1.7792 0,0.8495 -0.1669,1.1593 -1.0231,1.8994 -0.752,0.6501 -1.2742,0.8837 -1.9711,0.8818 -0.7162,0 -3.7575,-1.4582 -12.4337,-5.9532 -6.317,-3.2728 -11.526,-5.9505 -11.5755,-5.9505 -0.05,0 -0.09,2.7961 -0.09,6.2135 v 6.2136 l -0.7696,0.8614 -0.7697,0.8614 -3.0007,0.073 c -2.1707,0.053 -3.2327,-0.032 -3.8397,-0.3065 z m -1.5421,-29.6588 v -5.0271 l -8.7974,-0.07 -8.7974,-0.07 v 2.5832 c -8e-4,1.4208 -0.078,3.7458 -0.1724,5.1666 l -0.1711,2.5832 8.9698,-0.07 8.9699,-0.07 z m 25.7968,0 v -5.1594 h -7.9375 -7.9375 v 5.1594 5.1594 h 7.9375 7.9375 z m -25.7968,-13.7583 v -3.9688 l -8.7974,-0.07 -8.7974,-0.07 v 3.9642 3.9641 l 3.2411,0.086 c 1.7826,0.047 5.7415,0.081 8.7974,0.074 l 5.5563,-0.012 z m 21.3889,3.9272 4.4079,-0.1739 v -3.9272 -3.9272 h -7.9375 -7.9375 v 4.1011 4.101 h 3.5297 c 1.9412,0 5.5131,-0.078 7.9374,-0.1738 z"
         id="path1" /></g></g></svg>
