<?xml version="1.0" encoding="UTF-8" standalone="no"?>
<!-- Created with Inkscape (http://www.inkscape.org/) -->

<svg
   width="127.46882"
   height="127.9979"
   viewBox="0 0 33.726124 33.866111"
   version="1.1"
   id="svg1"
   xml:space="preserve"
   xmlns="http://www.w3.org/2000/svg"
   xmlns:svg="http://www.w3.org/2000/svg"><defs
     id="defs1" /><g
     id="layer1"
     transform="translate(-0.07030942,0.0696818)"><g
       id="g202"
       transform="matrix(3.7190685,0,0,4.3115333,-36.326513,-38.44562)"><path
         style="fill:#d45500;fill-opacity:0.995455;stroke:#550000;stroke-width:0.0602297;stroke-dasharray:none"
         id="path201"
         d="m 19.105973,14.465909 a 4.5001054,2.1719604 0 0 1 -4.449185,2.171821 4.5001054,2.1719604 0 0 1 -4.549874,-2.12267 l 4.498953,-0.04915 z"
         transform="matrix(0.99998073,0.00620849,-0.01992597,0.99980146,0,0)" /><path
         style="fill:#d45500;fill-opacity:0.995455;stroke:#550000;stroke-width:0.0629689;stroke-dasharray:none"
         id="path201-5"
         d="m -9.7029881,-11.364967 a 4.4988322,2.3746827 0 0 1 -2.2561019,2.0585686 4.4988322,2.3746827 0 0 1 -4.505498,-0.00612 4.4988322,2.3746827 0 0 1 -2.236005,-2.0646691 l 4.498773,0.01222 z"
         transform="matrix(-0.99999188,0.00402997,-0.01081249,-0.99994154,0,0)" /><rect
         style="fill:#d45500;fill-opacity:0.995455;stroke:#550000;stroke-width:0.068856;stroke-dasharray:none"
         id="rect202"
         width="8.9950037"
         height="1.5800276"
         x="9.8244686"
         y="12.054361"
         ry="0.38604668" /></g></g></svg>
