<?xml version="1.0" encoding="UTF-8" standalone="no"?>
<!-- Created with Inkscape (http://www.inkscape.org/) -->

<svg
   width="127.99999"
   height="127.99999"
   viewBox="0 0 33.866664 33.866664"
   version="1.1"
   id="svg1"
   xml:space="preserve"
   xmlns="http://www.w3.org/2000/svg"
   xmlns:svg="http://www.w3.org/2000/svg"><defs
     id="defs1" /><g
     id="layer1"><g
       id="layer1-8"
       transform="matrix(1.0000046,0,0,1,-7.7855315e-5,-1.3106253e-7)"><path
         style="fill:#d40000;fill-opacity:0.995455;stroke:#ffffff;stroke-width:0.0386464"
         d="m 16.384943,29.592097 c 0.04968,-1.030682 0.129765,-2.560027 0.177972,-3.398547 0.04822,-0.838518 0.06285,-1.597632 0.03257,-1.68692 -0.148561,-0.437792 -0.259009,-0.435453 -5.161746,0.109313 -1.250973,0.139003 -2.2933209,0.233931 -2.3163299,0.210951 -0.02301,-0.02298 0.0957,-0.474362 0.263808,-1.003072 0.168097,-0.528709 0.274405,-1.080563 0.236235,-1.226345 C 9.5758341,22.438523 8.1057303,21.249704 5.944656,19.62743 3.962786,18.139681 2.3681039,16.895616 2.4009181,16.862842 2.4337325,16.830069 2.8161132,16.652834 3.2506533,16.46899 3.8535712,16.213907 4.0509148,16.065349 4.0837378,15.841854 4.1073937,15.680775 3.854802,14.642115 3.5224218,13.533721 3.1900417,12.425328 2.949441,11.487151 2.9877537,11.448886 c 0.038313,-0.03827 0.9734134,0.104879 2.0780014,0.318122 1.104588,0.213232 2.0515777,0.387696 2.1044216,0.387696 0.2076025,0 0.4958643,-0.417519 0.6288683,-0.910854 0.3550063,-1.3167813 0.1832554,-1.3690493 2.1312701,0.648613 1.5515729,1.607045 1.7879609,1.804598 2.1135869,1.766356 0.694707,-0.08159 0.693237,-0.213493 -0.04256,-3.8178763 -0.374996,-1.8369412 -0.709226,-3.4690189 -0.742738,-3.6268405 -0.05841,-0.2750634 -0.015,-0.2658547 1.048003,0.2223345 0.609916,0.2801059 1.24343,0.5092831 1.407808,0.5092831 0.382737,0 0.631876,-0.3404732 2.026215,-2.7690454 0.974415,-1.6971722 1.134922,-1.9143508 1.26759,-1.7151532 0.08355,0.1254426 0.629651,1.0570683 1.213566,2.0702793 1.203745,2.0887466 1.45456,2.4139193 1.861928,2.4139193 0.158924,0 0.764296,-0.2238912 1.34527,-0.4975363 0.580975,-0.2736451 1.065359,-0.4880394 1.076409,-0.4764314 0.01105,0.011607 -0.288868,1.5361568 -0.666487,3.3878876 -0.731276,3.5859553 -0.775407,3.9286733 -0.536602,4.1671863 0.41872,0.418209 0.767225,0.191579 2.538726,-1.650904 l 1.737341,-1.806954 0.279291,0.91839 c 0.175249,0.576246 0.37092,0.967366 0.525233,1.049851 0.182649,0.09763 0.771331,0.029 2.287622,-0.266736 1.122927,-0.219006 2.070011,-0.369901 2.104634,-0.335322 0.03463,0.03459 -0.199348,0.9399 -0.519938,2.011823 -0.786676,2.630353 -0.79289,2.568085 0.304616,3.05225 l 0.887501,0.391521 -3.619737,2.713011 c -2.427029,1.81907 -3.643868,2.809046 -3.692976,3.004464 -0.04032,0.160405 0.06633,0.717793 0.237188,1.239627 0.170737,0.521495 0.29682,0.963546 0.280191,0.982337 -0.01663,0.01879 -1.08336,-0.07983 -2.370507,-0.219149 -4.51557,-0.488771 -4.615968,-0.496194 -4.870623,-0.360073 -0.235293,0.125771 -0.241561,0.26506 -0.165253,3.672915 l 0.07932,3.542183 h -0.515158 -0.515158 z"
         id="path1" /><path
         style="font-size:10.8993px;line-height:29.7768px;font-family:USAAF_Stencil;-inkscape-font-specification:USAAF_Stencil;text-align:center;letter-spacing:0.363313px;word-spacing:0px;text-anchor:middle;fill:#ffffff;fill-opacity:0.995455;stroke:#000000;stroke-width:0.110448"
         d="M 15.843237,8.3796301 17.81601,16.216227 H 16.508094 L 14.535321,8.3796301 Z m 3.923748,0 h -1.307916 l -1.144427,4.5886049 0.664858,2.626731 z m 2.39058,0.010899 v 0 h 1.155326 v 1.307916 H 22.71343 l -0.555865,0.5776629 v 4.065439 l 0.555865,0.577663 h 0.599461 v 1.307916 h -1.155326 v 0 L 20.849649,14.91921 v 0 0 -5.2207646 0 0 z m 2.615832,0 1.307916,1.307916 V 10.668483 H 24.773397 V 10.287008 L 24.217533,9.6984454 H 23.63987 v -1.307916 z m 0,5.9401189 v -0.403274 h 1.307916 v 0.991836 l -1.307916,1.307916 H 23.63987 V 14.91921 h 0.577663 z m 7.644037,-4.6431022 h 0.0218 v 0.010899 0 1.9400752 0 l -0.664858,0.664857 0.643059,0.643059 h 0.0218 v 0.0218 1.940076 l -1.307916,1.307916 h -1.133528 v -1.307916 h 0.577663 l 0.555865,-0.577663 v -0.78475 l -0.577663,-0.599461 h -0.555865 v -1.307916 h 0.577663 l 0.555865,-0.577663 v -0.78475 L 30.564553,9.6875461 h -0.566764 v -1.307916 h 1.133528 v 0 z m -3.901949,5.2207652 h 1.155325 v 1.307916 H 27.207569 V 8.3796301 h 2.463241 v 1.307916 h -1.155325 v 1.9509749 h 1.155325 v 1.307916 h -1.155325 z"
         id="text1"
         transform="scale(0.72657727,1.3763161)"
         aria-label="VCB" /></g></g></svg>
