<?xml version="1.0" encoding="UTF-8" standalone="no"?>
<!-- Created with Inkscape (http://www.inkscape.org/) -->

<svg
   width="60mm"
   height="60mm"
   viewBox="0 0 60 60"
   version="1.1"
   id="svg1"
   xml:space="preserve"
   inkscape:export-filename="returnTop_plain.svg .svg"
   inkscape:export-xdpi="1"
   inkscape:export-ydpi="1"
   xmlns:inkscape="http://www.inkscape.org/namespaces/inkscape"
   xmlns:sodipodi="http://sodipodi.sourceforge.net/DTD/sodipodi-0.dtd"
   xmlns="http://www.w3.org/2000/svg"
   xmlns:svg="http://www.w3.org/2000/svg"><sodipodi:namedview
     id="namedview1"
     pagecolor="#ffffff"
     bordercolor="#000000"
     borderopacity="0.25"
     inkscape:showpageshadow="2"
     inkscape:pageopacity="0.0"
     inkscape:pagecheckerboard="0"
     inkscape:deskcolor="#d1d1d1"
     inkscape:document-units="mm"
     inkscape:zoom="1.0840265"
     inkscape:cx="262.9087"
     inkscape:cy="149.90408"
     inkscape:window-width="1440"
     inkscape:window-height="900"
     inkscape:window-x="0"
     inkscape:window-y="0"
     inkscape:window-maximized="0"
     inkscape:current-layer="svg1"><inkscape:page
       x="0"
       y="0"
       width="60"
       height="60"
       id="page2"
       margin="0"
       bleed="0" /></sodipodi:namedview><defs
     id="defs1" /><rect
     style="fill:#a3a3a3;fill-opacity:0.296729;stroke:#ffff00;stroke-width:0.285374"
     id="rect3"
     width="64.71463"
     height="64.71463"
     x="-2.3573151"
     y="-2.3573151"
     inkscape:label="rect3" /><g
     inkscape:label="Layer 1"
     inkscape:groupmode="layer"
     id="layer1"><g
       id="g3"
       transform="matrix(1.9999794,0,0,1.9999994,-20.897033,-29.760835)"><g
         style="fill:#1f1f1f"
         id="g1"
         transform="matrix(0.0225,0,0,0.0225,14.648779,37.505423)"><path
           d="m 440,-320 h 80 v -168 l 64,64 56,-56 -160,-160 -160,160 56,56 64,-64 z m 40,240 Q 397,-80 324,-111.5 251,-143 197,-197 143,-251 111.5,-324 80,-397 80,-480 q 0,-83 31.5,-156 31.5,-73 85.5,-127 54,-54 127,-85.5 73,-31.5 156,-31.5 83,0 156,31.5 73,31.5 127,85.5 54,54 85.5,127 31.5,73 31.5,156 0,83 -31.5,156 -31.5,73 -85.5,127 -54,54 -127,85.5 Q 563,-80 480,-80 Z m 0,-80 q 134,0 227,-93 93,-93 93,-227 0,-134 -93,-227 -93,-93 -227,-93 -134,0 -227,93 -93,93 -93,227 0,134 93,227 93,93 227,93 z m 0,-320 z"
           id="path1"
           style="fill:#ffff00" /></g><text
         xml:space="preserve"
         style="font-size:4.7625px;line-height:5.95313px;font-family:sans-serif;-inkscape-font-specification:sans-serif;text-align:start;letter-spacing:0px;writing-mode:lr-tb;direction:ltr;text-anchor:start;fill:#ffff00;stroke:#ffff00;stroke-width:0.264583"
         x="10.858972"
         y="41.599903"
         id="text3"><tspan
           sodipodi:role="line"
           id="tspan3"
           style="font-size:4.7625px;line-height:5.95313px;stroke-width:0.264583"
           x="10.858972"
           y="41.599903">トップへ戻る</tspan></text></g></g></svg>
