<?xml version='1.0' encoding='utf-8'?>
<svg xmlns="http://www.w3.org/2000/svg" width="210mm" height="297mm" version="1.1" viewBox="0 0 210 297"> <path d="m172.76 115.5c-2.5021-4.4877-5.1862-8.5292-8.0191-12.154-16.672-21.332-40.189-28.541-60.63-27.29-21.76 1.3319-40.258 12.213-50.904 24.546-12.967 15.021-19.445 35.717-18.396 53.881 0.66503 11.513 3.9492 22.694 9.8516 31.922 7.1047 11.108 20.671 27.56 41.175 33.062 21.97 5.8951 52.24 0.30859 69.776-16.641 8.7974-8.5032 17.892-20.063 21.35-36.688-15.962 23.444-37.845 30.836-56.546 30.425-14.32-0.31506-36.477-9.5342-42.526-23.143 0.95954-1.6059 1.173-2.7329 0.86775-3.5264-0.71091-1.8486-4.6514-0.35542-8.2017-0.68279-2.3629-0.21786-4.4688-1.2033-5.6175-2.0904 3.1604 0.47784 5.5694 0.52875 7.461 0.60058 2.5103 0.0954 4.0462-0.0858 4.5999-1.1987 0.50848-1.0221 0.24768-2.487-0.67741-4.3333-1.5454-0.24988-3.0675 0.41441-4.1397 0.32223-1.5178-0.13041-2.3655-0.75911-2.8702-1.2954-0.8617-0.91543-1.4118-3.5853 1.8387-4.6024 1.0573-0.27845 2.1975-0.2377 2.8742-0.0629 1.0576 0.27318 1.3841 0.58774 1.3256 0.80497-0.03064 0.11372-0.06289 0.25336-0.39571 0.26733-0.41704 0.0175-0.80899-0.18563-1.2688-0.30377-0.47458-0.12189-1.0196-0.15853-1.5638-0.12136-4.0801 0.27919-2.7898 3.1192-2.1398 3.8098 0.37526 0.39878 1.0897 0.94789 2.2197 1.0218 0.80772 0.0529 1.7609-0.24945 2.8632-0.41513 1.8021-0.27098 2.0992-0.45389 3.7689-1.0581 1.1982-0.43352 2.3624-0.62796 2.9182-1.4961 0.4228-0.66051 0.3406-1.5047-0.12578-2.3538-0.52864-0.96258-1.5511-1.9535-2.8904-3.0822-1.645-1.3864-3.601-2.952-5.2854-4.5671-1.1854-1.1365-2.2999-2.26-2.8023-3.5277-1.1083-2.7967 1.2235-4.6025 2.4869-7.6114 1.0803-2.573-0.88426-5.7175 0.40936-8.6029 10.383-23.704 29.377-33.486 46.355-34.566 16.455-1.0468 34.207 6.7784 52.858 20.751zm-116.88 30.505c0.35351 0.50943 0.69556 0.83071 1.0122 1.0027 0.32158 0.17471 0.6142 0.18899 0.86061 0.0903 0.67051-0.26855 1.2523-1.3428 1.8315-2.4124 0.53483-0.98769 1.0681-1.9722 1.7326-2.4351 0.3596-0.2504 0.84833-0.50041 1.4111-0.70691 0.50398-0.18489 1.0697-0.336 1.6569-0.42188 0.40299-0.0589 0.786-0.0897 1.1561-0.11927 0.8473-0.0677 1.6263-0.13018 2.0221-0.45125 0.25974-0.21085 0.39656-0.51102 0.33943-0.90641-0.05702-0.39563-0.29588-0.88522-0.77465-1.476-0.08263-0.10194-0.16526-0.20388 0.03781-0.36896 0.20304-0.16504 0.28567-0.0631 0.3683 0.0389 0.54345 0.67059 0.81748 1.2474 0.88741 1.7322 0.08662 0.60037-0.12578 1.0598-0.52821 1.3864-0.52655 0.42722-1.3815 0.49577-2.3112 0.57012-0.37743 0.0301-0.7679 0.0615-1.1212 0.11316-0.55025 0.0805-1.0803 0.22196-1.5523 0.39521-0.51909 0.19045-0.96647 0.4186-1.2921 0.6454-0.56327 0.39235-1.0662 1.321-1.5707 2.2526-0.62439 1.153-1.2516 2.311-2.098 2.6501-0.38711 0.15507-0.8327 0.14015-1.3056-0.11676-0.38492-0.20905-0.78933-0.58335-1.1928-1.1648-0.07477-0.10771-0.14962-0.21556 0.06572-0.36423s0.2902-0.0408 0.36497 0.0669zm1.5719 0.269c1.3033-4.2109 3.9492-6.3433 7.9371-6.3968 0.13113-2e-3 0.26236-3e-3 0.26543 0.25903 3e-3 0.26249-0.12822 0.26426-0.25934 0.26596-3.7339 0.05-6.2151 2.0587-7.4428 6.0255-0.03873 0.12536-0.0776 0.25072-0.32779 0.17386-0.25019-0.0768-0.21135-0.2022-0.17261-0.32756zm8.7936-0.95157c-0.42344-0.11203-0.79312-0.39772-1.1625-0.68308-0.60896-0.47048-1.2181-0.94107-1.9445-0.26574-0.09607 0.0893-0.19214 0.1787-0.37052-0.013-0.17838-0.19172-0.08231-0.28107 0.01376-0.37042 1.0516-0.97769 1.8364-0.37137 2.6211 0.23487 0.32716 0.25284 0.65484 0.50597 0.97602 0.5909 0.12682 0.0335 0.25366 0.0671 0.18698 0.32033-0.06667 0.25326-0.19349 0.21966-0.32033 0.18616zm-9.4883 3.2019c0.5801 0.093 1.1053-0.0714 1.5896-0.39571 0.50932-0.34102 0.9779-0.85823 1.419-1.444v-1e-3c0.27035-0.35899 0.4985-0.77695 0.72403-1.1906 0.23908-0.43847 0.47604-0.87281 0.76361-1.2465 0.40989-0.5326 0.87797-0.95951 1.382-1.2317 0.48633-0.2626 1.0055-0.38219 1.5388-0.31729 0.54943 0.0669 1.1081 0.22037 1.6887 0.37965 0.60254 0.16537 1.23 0.33766 1.8623 0.4181 0.13018 0.0165 0.26038 0.0331 0.22752 0.29249-0.03286 0.25945-0.16306 0.24286-0.29326 0.22638-0.68162-0.0866-1.3204-0.26207-1.9339-0.43048-0.56383-0.15465-1.1063-0.30363-1.6129-0.36539-0.42135-0.0512-0.8364 0.0459-1.2291 0.25787-0.4377 0.23624-0.84971 0.61444-1.2159 1.0902-0.26313 0.34184-0.4898 0.75742-0.71848 1.1768-0.23646 0.43363-0.47551 0.87175-0.7652 1.2564v-1e-3c-0.4731 0.62828-0.98137 1.1868-1.546 1.5649-0.58997 0.39511-1.2372 0.59428-1.963 0.47784-0.12957-0.0208-0.25913-0.0416-0.21807-0.29996 0.04106-0.25839 0.1706-0.23759 0.30017-0.21682zm6.3275 21.371c-0.35444-0.7374-0.51792-1.5002-0.50668-2.2855 0.01101-0.77928 0.19465-1.5791 0.53441-2.3971 0.0503-0.12116 0.10059-0.24234 0.34258-0.14185 0.24202 0.10049 0.19172 0.22164 0.14145 0.3428-0.31382 0.75565-0.48339 1.4906-0.49348 2.2023-0.01008 0.70564 0.13682 1.391 0.45545 2.0539 0.05681 0.11821 0.11372 0.23653-0.12316 0.3493-0.23686 0.11277-0.29377-6e-3 -0.35057-0.12377zm0.43447-2.6083c-0.0043-0.43509 0.04188-0.83574 0.15026-1.1936 0.11202-0.36925 0.29062-0.69307 0.54795-0.96184 0.09072-0.0947 0.18142-0.18952 0.3701-8e-3 0.18867 0.18153 0.09795 0.27636 0.0072 0.37106-0.19603 0.20473-0.33398 0.45767-0.4228 0.75059-0.09229 0.3047-0.13158 0.65347-0.12779 1.0375 0.0013 0.13115 0.0026 0.26239-0.25995 0.26448-0.26249 2e-3 -0.26374-0.12915-0.26501-0.26027zm-7.4385-16.305c0.78502-0.45029 1.522-0.94893 2.225-1.4816 1.6043-1.2153 2.6227-2.9874 4.4543-4.005-2.3436 3.4296 3.7561 4.5403 2.7433 0.50691 0.65191 1.1496 1.4778 2.1945 2.5346 3.1011 0.23604 0.34816-0.13774 0.44833-0.44728 0.23855-0.33912-0.23739-0.61756-0.53568-0.83489-0.89453-0.51615 0.53072-1.121 0.88109-1.7887 1.1027-0.78976 0.26228-1.754-6e-3 -2.8548-0.11182-1.3713-0.13134-2.8796-0.10258-3.6518 0.44622-0.73295 0.67691-1.2739 0.98894-2.2902 1.5447-0.4582 0.2037-0.44424-0.26459-0.08946-0.44728zm3.4887 21.38c-0.49935-1.0245-0.68498-2.02-0.58364-2.9884 0.08871-0.84759 0.39677-1.6689 0.9063-2.4659-0.62063 0.4314-1.2241 0.91122-1.7714 1.4788-0.09102 0.0944-0.18216 0.18889-0.37084 7e-3 -0.18867-0.18153-0.09752-0.27601-0.0065-0.37041 0.58282-0.60455 1.2238-1.1123 1.8812-1.5672 0.66799-0.46217 1.3222-0.85264 1.9559-1.2371 0.38092-0.23108-0.0503 0.031 0.2626-0.15843h-0.0011c1.5223-0.92204 2.9093-1.7623 3.7739-2.6956 0.89413-0.9652 1.4534-1.9465 1.7892-2.8659 0.44916-1.2293 0.50228-2.3501 0.42397-3.174-0.10226-1.0759-0.80372-2.7182-2.0959-3.9435-0.93938-0.89066-2.1927-1.5551-3.7555-1.606-0.70146-0.0228-1.4653 0.0767-2.2908 0.33281-0.76898 0.23866-1.5933 0.61339-2.4728 1.1515-0.11192 0.0684-0.22384 0.13692-0.36023-0.0866s-0.02445-0.292 0.08747-0.36044c0.9171-0.56097 1.7814-0.95325 2.5919-1.2048 0.88646-0.27498 1.7071-0.38195 2.4609-0.3574 1.7077 0.0557 3.0757 0.78023 4.1001 1.7515 1.3885 1.3166 2.1441 3.0995 2.2557 4.2738 0.08409 0.88497 0.0277 2.0873-0.45254 3.4017-0.35843 0.9814-0.95165 2.0249-1.8958 3.0442-0.84709 0.9143-2.1233 1.7172-3.5408 2.5779 0.0313 6e-3 0.06752 0.0169 0.10909 0.0346 0.24096 0.10258 0.18963 0.22344 0.13838 0.34417-0.36065 0.84932-0.5743 1.7036-0.60664 2.5635-0.03225 0.85643 0.11528 1.7196 0.47625 2.5901 0.05019 0.12118 0.10046 0.24244-0.14155 0.34293-0.24199 0.10046-0.29228-0.0208-0.34248-0.14195-0.39195-0.94517-0.55205-1.8815-0.51721-2.8095 0.03477-0.92459 0.26355-1.8409 0.64971-2.7502 6e-3 -0.0142 0.01206-0.0286 0.01836-0.0424-0.04315 0.0261-0.08639 0.0526-0.12975 0.0789h-5.29e-4c-0.03802 0.0231-0.1157 0.0703-0.26091 0.15843-0.4517 0.27406-0.91712 0.55364-1.3693 0.84468 0.21291 0.15161 0.13668 0.25829 0.06035 0.36497-0.59227 0.82778-0.94639 1.6767-1.0377 2.549-0.09091 0.86987 0.07906 1.7709 0.53454 2.7054 0.05741 0.11792 0.11496 0.23593-0.12086 0.35078-0.23582 0.11486-0.29334-3e-3 -0.35078-0.12105z" fill="#ffcb00" fill-rule="evenodd" stroke-width=".26458"/> </svg>