<?xml version='1.0' encoding='utf-8'?>
<svg xmlns="http://www.w3.org/2000/svg" viewBox="0 0 248 242"> <defs> <filter id="a" x="-124" y="-121" width="200%" height="200%"> <feGaussianBlur stdDeviation="6"/> </filter> </defs> <g stroke-width="0"> <path transform="rotate(90 126.52 125.21)" d="m110.52 8c32.056 5.754 66.683 32.421 80.905 67.31s5.0157 80.206-22.476 104.45c-23.778 23.389-69.524 40.436-118.29 14.976-35.333-22.889-47.492-41.968-50.667-72.381 2.2857 44.889 16.191 73.588 48.857 99.81 44.095 32.508 115.05 26.063 155.71-20.762 28.667-28.825 44.857-98.444 7.4286-146.67-34-44.222-74.818-44.706-101.48-46.738z" fill="#bfbfbf" filter="url(#a)"/> <path transform="rotate(90 130.58 117.21)" d="m124.19 0c32.056 5.754 66.683 32.421 80.905 67.31s5.0157 80.206-22.476 104.45c-23.778 23.389-69.524 40.436-118.29 14.976-35.333-22.889-47.492-41.968-50.667-72.381 2.2857 44.889 16.191 73.588 48.857 99.81 44.095 32.508 115.05 26.063 155.71-20.762 28.667-28.825 44.857-98.444 7.4286-146.67-34-44.222-74.818-44.706-101.48-46.738z"/> </g> </svg>